<?xml version="1.0" encoding="UTF-8" standalone="no"?>
<!DOCTYPE svg PUBLIC "-//W3C//DTD SVG 1.1//EN" "http://www.w3.org/Graphics/SVG/1.1/DTD/svg11.dtd">
<!-- Generated by graphviz version 2.40.1 (20161225.0304)
 -->
<!-- Title: G Pages: 1 -->
<svg width="1206pt" height="332pt" viewBox="0.00 0.00 1206.21 332.00" xmlns="http://www.w3.org/2000/svg" xmlns:xlink="http://www.w3.org/1999/xlink">
<g id="graph0" class="graph" transform="scale(1 1) rotate(0) translate(4 328)">
<title>G</title>
<polygon fill="#ffffff" stroke="transparent" points="-4,4 -4,-328 1202.2137,-328 1202.2137,4 -4,4"/>
<!-- abs() -->
<g id="node1" class="node">
<title>abs()</title>
<ellipse fill="none" stroke="#000000" cx="137.1689" cy="-162" rx="30.1746" ry="18"/>
<text text-anchor="middle" x="137.1689" y="-157.8" font-family="Times,serif" font-size="14.00" fill="#000000">abs()</text>
</g>
<!-- doCommand() -->
<g id="node2" class="node">
<title>doCommand()</title>
<ellipse fill="none" stroke="#000000" cx="328.1689" cy="-90" rx="67.2196" ry="18"/>
<text text-anchor="middle" x="328.1689" y="-85.8" font-family="Times,serif" font-size="14.00" fill="#000000">doCommand()</text>
</g>
<!-- abs()&#45;&gt;doCommand() -->
<g id="edge1" class="edge">
<title>abs()-&gt;doCommand()</title>
<path fill="none" stroke="#000000" d="M160.9431,-150.6102C165.9362,-148.3359 171.1965,-146.0258 176.1689,-144 208.9066,-130.6622 246.3158,-117.3485 275.8299,-107.278"/>
<polygon fill="#000000" stroke="#000000" points="277.1724,-110.5185 285.5182,-103.9918 274.9238,-103.8895 277.1724,-110.5185"/>
</g>
<!-- main() -->
<g id="node4" class="node">
<title>main()</title>
<ellipse fill="none" stroke="#000000" cx="567.1689" cy="-18" rx="36.5555" ry="18"/>
<text text-anchor="middle" x="567.1689" y="-13.8" font-family="Times,serif" font-size="14.00" fill="#000000">main()</text>
</g>
<!-- doCommand()&#45;&gt;main() -->
<g id="edge3" class="edge">
<title>doCommand()-&gt;main()</title>
<path fill="none" stroke="#000000" d="M373.123,-76.4574C417.0625,-63.2203 483.3901,-43.2388 525.989,-30.4057"/>
<polygon fill="#000000" stroke="#000000" points="527.1877,-33.7 535.753,-27.4642 525.1685,-26.9975 527.1877,-33.7"/>
</g>
<!-- atEOL() -->
<g id="node3" class="node">
<title>atEOL()</title>
<ellipse fill="none" stroke="#000000" cx="1116.1689" cy="-162" rx="43.4144" ry="18"/>
<text text-anchor="middle" x="1116.1689" y="-157.8" font-family="Times,serif" font-size="14.00" fill="#000000">atEOL()</text>
</g>
<!-- atEOL()&#45;&gt;doCommand() -->
<g id="edge2" class="edge">
<title>atEOL()-&gt;doCommand()</title>
<path fill="none" stroke="#000000" d="M1074.8085,-156.3689C1044.9435,-152.4579 1003.6228,-147.3647 967.1689,-144 717.4969,-120.9552 652.1535,-145.0244 404.1689,-108 398.3268,-107.1278 392.2723,-106.0312 386.2468,-104.8118"/>
<polygon fill="#000000" stroke="#000000" points="386.6867,-101.3269 376.1763,-102.6618 385.2251,-108.1727 386.6867,-101.3269"/>
</g>
<!-- error() -->
<g id="node5" class="node">
<title>error()</title>
<ellipse fill="none" stroke="#000000" cx="563.1689" cy="-234" rx="36.4528" ry="18"/>
<text text-anchor="middle" x="563.1689" y="-229.8" font-family="Times,serif" font-size="14.00" fill="#000000">error()</text>
</g>
<!-- readInstructions() -->
<g id="node6" class="node">
<title>readInstructions()</title>
<ellipse fill="none" stroke="#000000" cx="669.1689" cy="-162" rx="79.8507" ry="18"/>
<text text-anchor="middle" x="669.1689" y="-157.8" font-family="Times,serif" font-size="14.00" fill="#000000">readInstructions()</text>
</g>
<!-- error()&#45;&gt;readInstructions() -->
<g id="edge4" class="edge">
<title>error()-&gt;readInstructions()</title>
<path fill="none" stroke="#000000" d="M584.6196,-219.4297C599.2499,-209.4921 618.9232,-196.1291 635.6111,-184.7939"/>
<polygon fill="#000000" stroke="#000000" points="637.7176,-187.5942 644.0232,-179.0801 633.7844,-181.8037 637.7176,-187.5942"/>
</g>
<!-- readInstructions()&#45;&gt;main() -->
<g id="edge36" class="edge">
<title>readInstructions()-&gt;main()</title>
<path fill="none" stroke="#000000" d="M651.41,-144.305C641.6427,-134.1279 629.6248,-120.8458 620.1689,-108 605.248,-87.7301 590.9262,-62.9822 580.9404,-44.5715"/>
<polygon fill="#000000" stroke="#000000" points="583.9343,-42.748 576.1334,-35.5788 577.7609,-46.0479 583.9343,-42.748"/>
</g>
<!-- exit() -->
<g id="node7" class="node">
<title>exit()</title>
<ellipse fill="none" stroke="#000000" cx="445.1689" cy="-90" rx="31.8973" ry="18"/>
<text text-anchor="middle" x="445.1689" y="-85.8" font-family="Times,serif" font-size="14.00" fill="#000000">exit()</text>
</g>
<!-- exit()&#45;&gt;main() -->
<g id="edge5" class="edge">
<title>exit()-&gt;main()</title>
<path fill="none" stroke="#000000" d="M467.2622,-76.9613C486.1282,-65.8273 513.5158,-49.6641 534.8465,-37.0755"/>
<polygon fill="#000000" stroke="#000000" points="536.7417,-40.0211 543.5749,-31.9243 533.1839,-33.9927 536.7417,-40.0211"/>
</g>
<!-- feof() -->
<g id="node8" class="node">
<title>feof()</title>
<ellipse fill="none" stroke="#000000" cx="766.1689" cy="-234" rx="33.0218" ry="18"/>
<text text-anchor="middle" x="766.1689" y="-229.8" font-family="Times,serif" font-size="14.00" fill="#000000">feof()</text>
</g>
<!-- feof()&#45;&gt;readInstructions() -->
<g id="edge6" class="edge">
<title>feof()-&gt;readInstructions()</title>
<path fill="none" stroke="#000000" d="M746.5395,-219.4297C733.3676,-209.6526 715.7288,-196.5599 700.6195,-185.3448"/>
<polygon fill="#000000" stroke="#000000" points="702.6459,-182.4901 692.5301,-179.3403 698.4737,-188.1109 702.6459,-182.4901"/>
</g>
<!-- fflush() -->
<g id="node9" class="node">
<title>fflush()</title>
<ellipse fill="none" stroke="#000000" cx="55.1689" cy="-234" rx="39.9838" ry="18"/>
<text text-anchor="middle" x="55.1689" y="-229.8" font-family="Times,serif" font-size="14.00" fill="#000000">fflush()</text>
</g>
<!-- fflush()&#45;&gt;doCommand() -->
<g id="edge8" class="edge">
<title>fflush()-&gt;doCommand()</title>
<path fill="none" stroke="#000000" d="M56.7371,-215.9449C59.5101,-195.4391 67.1553,-162.4427 88.1689,-144 112.912,-122.284 194.8933,-107.1396 256.1997,-98.5273"/>
<polygon fill="#000000" stroke="#000000" points="256.8019,-101.9776 266.2328,-97.1497 255.8496,-95.0426 256.8019,-101.9776"/>
</g>
<!-- stepTM() -->
<g id="node10" class="node">
<title>stepTM()</title>
<ellipse fill="none" stroke="#000000" cx="233.1689" cy="-162" rx="47.5081" ry="18"/>
<text text-anchor="middle" x="233.1689" y="-157.8" font-family="Times,serif" font-size="14.00" fill="#000000">stepTM()</text>
</g>
<!-- fflush()&#45;&gt;stepTM() -->
<g id="edge7" class="edge">
<title>fflush()-&gt;stepTM()</title>
<path fill="none" stroke="#000000" d="M84.9621,-221.9488C114.0571,-210.18 158.6019,-192.1619 191.2623,-178.951"/>
<polygon fill="#000000" stroke="#000000" points="192.6027,-182.1843 200.5606,-175.1899 189.9778,-175.6951 192.6027,-182.1843"/>
</g>
<!-- stepTM()&#45;&gt;doCommand() -->
<g id="edge38" class="edge">
<title>stepTM()-&gt;doCommand()</title>
<path fill="none" stroke="#000000" d="M254.7259,-145.6621C267.329,-136.1102 283.447,-123.8945 297.371,-113.3416"/>
<polygon fill="#000000" stroke="#000000" points="299.8504,-115.8541 305.706,-107.0245 295.6222,-110.2753 299.8504,-115.8541"/>
</g>
<!-- fgets() -->
<g id="node11" class="node">
<title>fgets()</title>
<ellipse fill="none" stroke="#000000" cx="149.1689" cy="-234" rx="36.4722" ry="18"/>
<text text-anchor="middle" x="149.1689" y="-229.8" font-family="Times,serif" font-size="14.00" fill="#000000">fgets()</text>
</g>
<!-- fgets()&#45;&gt;doCommand() -->
<g id="edge11" class="edge">
<title>fgets()-&gt;doCommand()</title>
<path fill="none" stroke="#000000" d="M129.727,-218.7834C108.2585,-200.1402 79.0959,-168.0697 98.1689,-144 117.4935,-119.6128 194.7004,-105.1649 254.3919,-97.4409"/>
<polygon fill="#000000" stroke="#000000" points="255.0736,-100.883 264.5611,-96.1673 254.2037,-93.9373 255.0736,-100.883"/>
</g>
<!-- fgets()&#45;&gt;readInstructions() -->
<g id="edge9" class="edge">
<title>fgets()-&gt;readInstructions()</title>
<path fill="none" stroke="#000000" d="M182.1448,-226.0714C197.3143,-222.6247 215.5871,-218.754 232.1689,-216 368.9982,-193.2743 404.6035,-197.7335 542.1689,-180 558.3557,-177.9134 575.6832,-175.5462 592.1717,-173.2302"/>
<polygon fill="#000000" stroke="#000000" points="592.8999,-176.6621 602.312,-171.7977 591.9207,-169.731 592.8999,-176.6621"/>
</g>
<!-- fgets()&#45;&gt;stepTM() -->
<g id="edge10" class="edge">
<title>fgets()-&gt;stepTM()</title>
<path fill="none" stroke="#000000" d="M167.3956,-218.3771C178.6369,-208.7417 193.2659,-196.2025 205.8724,-185.397"/>
<polygon fill="#000000" stroke="#000000" points="208.4938,-187.7599 213.8086,-178.5945 203.9382,-182.4451 208.4938,-187.7599"/>
</g>
<!-- fopen() -->
<g id="node12" class="node">
<title>fopen()</title>
<ellipse fill="none" stroke="#000000" cx="534.1689" cy="-90" rx="39.4061" ry="18"/>
<text text-anchor="middle" x="534.1689" y="-85.8" font-family="Times,serif" font-size="14.00" fill="#000000">fopen()</text>
</g>
<!-- fopen()&#45;&gt;main() -->
<g id="edge12" class="edge">
<title>fopen()-&gt;main()</title>
<path fill="none" stroke="#000000" d="M542.3262,-72.2022C546.1226,-63.9192 550.7186,-53.8915 554.92,-44.7248"/>
<polygon fill="#000000" stroke="#000000" points="558.1205,-46.142 559.1054,-35.593 551.7571,-43.2254 558.1205,-46.142"/>
</g>
<!-- getCh() -->
<g id="node13" class="node">
<title>getCh()</title>
<ellipse fill="none" stroke="#000000" cx="862.1689" cy="-306" rx="40.5673" ry="18"/>
<text text-anchor="middle" x="862.1689" y="-301.8" font-family="Times,serif" font-size="14.00" fill="#000000">getCh()</text>
</g>
<!-- getNum() -->
<g id="node14" class="node">
<title>getNum()</title>
<ellipse fill="none" stroke="#000000" cx="666.1689" cy="-234" rx="48.654" ry="18"/>
<text text-anchor="middle" x="666.1689" y="-229.8" font-family="Times,serif" font-size="14.00" fill="#000000">getNum()</text>
</g>
<!-- getCh()&#45;&gt;getNum() -->
<g id="edge13" class="edge">
<title>getCh()-&gt;getNum()</title>
<path fill="none" stroke="#000000" d="M830.6781,-294.432C798.0961,-282.463 746.943,-263.6721 710.329,-250.2221"/>
<polygon fill="#000000" stroke="#000000" points="711.4789,-246.9158 700.8853,-246.753 709.0651,-253.4865 711.4789,-246.9158"/>
</g>
<!-- getWord() -->
<g id="node15" class="node">
<title>getWord()</title>
<ellipse fill="none" stroke="#000000" cx="1129.1689" cy="-234" rx="51.005" ry="18"/>
<text text-anchor="middle" x="1129.1689" y="-229.8" font-family="Times,serif" font-size="14.00" fill="#000000">getWord()</text>
</g>
<!-- getCh()&#45;&gt;getWord() -->
<g id="edge14" class="edge">
<title>getCh()-&gt;getWord()</title>
<path fill="none" stroke="#000000" d="M897.0745,-296.5873C943.2875,-284.1253 1025.1143,-262.0597 1078.2314,-247.736"/>
<polygon fill="#000000" stroke="#000000" points="1079.3826,-251.0506 1088.1264,-245.0676 1077.56,-244.292 1079.3826,-251.0506"/>
</g>
<!-- skipCh() -->
<g id="node16" class="node">
<title>skipCh()</title>
<ellipse fill="none" stroke="#000000" cx="862.1689" cy="-234" rx="44.6626" ry="18"/>
<text text-anchor="middle" x="862.1689" y="-229.8" font-family="Times,serif" font-size="14.00" fill="#000000">skipCh()</text>
</g>
<!-- getCh()&#45;&gt;skipCh() -->
<g id="edge15" class="edge">
<title>getCh()-&gt;skipCh()</title>
<path fill="none" stroke="#000000" d="M862.1689,-287.8314C862.1689,-280.131 862.1689,-270.9743 862.1689,-262.4166"/>
<polygon fill="#000000" stroke="#000000" points="865.669,-262.4132 862.1689,-252.4133 858.669,-262.4133 865.669,-262.4132"/>
</g>
<!-- getNum()&#45;&gt;doCommand() -->
<g id="edge18" class="edge">
<title>getNum()-&gt;doCommand()</title>
<path fill="none" stroke="#000000" d="M639.2987,-218.9867C621.865,-208.803 598.9778,-194.5836 580.1689,-180 561.7835,-165.7448 562.5543,-155.2102 542.1689,-144 535.2811,-140.2123 449.2769,-119.0886 388.4251,-104.4127"/>
<polygon fill="#000000" stroke="#000000" points="389.0556,-100.9645 378.5141,-102.0257 387.4165,-107.7699 389.0556,-100.9645"/>
</g>
<!-- getNum()&#45;&gt;readInstructions() -->
<g id="edge16" class="edge">
<title>getNum()-&gt;readInstructions()</title>
<path fill="none" stroke="#000000" d="M666.9259,-215.8314C667.2468,-208.131 667.6283,-198.9743 667.9849,-190.4166"/>
<polygon fill="#000000" stroke="#000000" points="671.4822,-190.5503 668.4017,-180.4133 664.4883,-190.2589 671.4822,-190.5503"/>
</g>
<!-- getNum()&#45;&gt;stepTM() -->
<g id="edge17" class="edge">
<title>getNum()-&gt;stepTM()</title>
<path fill="none" stroke="#000000" d="M630.2082,-221.8746C622.9667,-219.7068 615.3681,-217.6248 608.1689,-216 577.6027,-209.1016 384.7631,-182.553 288.1664,-169.4301"/>
<polygon fill="#000000" stroke="#000000" points="288.383,-165.9275 278.0031,-168.0507 287.4415,-172.8639 288.383,-165.9275"/>
</g>
<!-- getWord()&#45;&gt;doCommand() -->
<g id="edge20" class="edge">
<title>getWord()-&gt;doCommand()</title>
<path fill="none" stroke="#000000" d="M1089.4652,-222.4709C1021.9806,-203.304 880.3288,-164.9279 758.1689,-144 602.2949,-117.2964 560.1148,-134.2801 404.1689,-108 398.5155,-107.0473 392.6564,-105.9183 386.8138,-104.6972"/>
<polygon fill="#000000" stroke="#000000" points="387.5513,-101.2758 377.0358,-102.5701 386.0633,-108.1159 387.5513,-101.2758"/>
</g>
<!-- getWord()&#45;&gt;readInstructions() -->
<g id="edge19" class="edge">
<title>getWord()-&gt;readInstructions()</title>
<path fill="none" stroke="#000000" d="M1090.1915,-222.2916C1081.6676,-219.9881 1072.6559,-217.747 1064.1689,-216 957.7112,-194.0862 833.2298,-178.7379 752.894,-170.1461"/>
<polygon fill="#000000" stroke="#000000" points="753.1463,-166.6533 742.8333,-169.0807 752.4091,-173.6144 753.1463,-166.6533"/>
</g>
<!-- skipCh()&#45;&gt;readInstructions() -->
<g id="edge37" class="edge">
<title>skipCh()-&gt;readInstructions()</title>
<path fill="none" stroke="#000000" d="M828.991,-221.6228C799.0426,-210.4503 754.5261,-193.8431 720.0757,-180.9911"/>
<polygon fill="#000000" stroke="#000000" points="721.2389,-177.6895 710.6463,-177.4734 718.7922,-184.248 721.2389,-177.6895"/>
</g>
<!-- isalnum() -->
<g id="node17" class="node">
<title>isalnum()</title>
<ellipse fill="none" stroke="#000000" cx="1150.1689" cy="-306" rx="48.0897" ry="18"/>
<text text-anchor="middle" x="1150.1689" y="-301.8" font-family="Times,serif" font-size="14.00" fill="#000000">isalnum()</text>
</g>
<!-- isalnum()&#45;&gt;getWord() -->
<g id="edge21" class="edge">
<title>isalnum()-&gt;getWord()</title>
<path fill="none" stroke="#000000" d="M1144.8697,-287.8314C1142.5641,-279.9266 1139.811,-270.4872 1137.2587,-261.7365"/>
<polygon fill="#000000" stroke="#000000" points="1140.5537,-260.5334 1134.3936,-251.9134 1133.8337,-262.4934 1140.5537,-260.5334"/>
</g>
<!-- isdigit() -->
<g id="node18" class="node">
<title>isdigit()</title>
<ellipse fill="none" stroke="#000000" cx="666.1689" cy="-306" rx="41.7269" ry="18"/>
<text text-anchor="middle" x="666.1689" y="-301.8" font-family="Times,serif" font-size="14.00" fill="#000000">isdigit()</text>
</g>
<!-- isdigit()&#45;&gt;getNum() -->
<g id="edge22" class="edge">
<title>isdigit()-&gt;getNum()</title>
<path fill="none" stroke="#000000" d="M666.1689,-287.8314C666.1689,-280.131 666.1689,-270.9743 666.1689,-262.4166"/>
<polygon fill="#000000" stroke="#000000" points="669.669,-262.4132 666.1689,-252.4133 662.669,-262.4133 669.669,-262.4132"/>
</g>
<!-- nonBlank() -->
<g id="node19" class="node">
<title>nonBlank()</title>
<ellipse fill="none" stroke="#000000" cx="1029.1689" cy="-306" rx="55.0381" ry="18"/>
<text text-anchor="middle" x="1029.1689" y="-301.8" font-family="Times,serif" font-size="14.00" fill="#000000">nonBlank()</text>
</g>
<!-- nonBlank()&#45;&gt;atEOL() -->
<g id="edge26" class="edge">
<title>nonBlank()-&gt;atEOL()</title>
<path fill="none" stroke="#000000" d="M1069.5699,-293.6516C1115.7626,-279.3435 1185.525,-257.0757 1189.1689,-252 1198.4999,-239.0026 1196.3715,-230.2871 1189.1689,-216 1181.6593,-201.1041 1167.8848,-189.2962 1154.3078,-180.5685"/>
<polygon fill="#000000" stroke="#000000" points="1155.8584,-177.4173 1145.4821,-175.2765 1152.2586,-183.4208 1155.8584,-177.4173"/>
</g>
<!-- nonBlank()&#45;&gt;readInstructions() -->
<g id="edge27" class="edge">
<title>nonBlank()-&gt;readInstructions()</title>
<path fill="none" stroke="#000000" d="M1035.9046,-288.0986C1042.1658,-268.0462 1048.2087,-235.7703 1031.1689,-216 1013.3212,-195.2924 855.8855,-178.0233 754.5963,-168.9272"/>
<polygon fill="#000000" stroke="#000000" points="754.6374,-165.4172 744.3671,-168.0192 754.0184,-172.3898 754.6374,-165.4172"/>
</g>
<!-- nonBlank()&#45;&gt;getNum() -->
<g id="edge23" class="edge">
<title>nonBlank()-&gt;getNum()</title>
<path fill="none" stroke="#000000" d="M979.671,-298.0146C906.1869,-286.0269 771.7891,-263.5564 724.1689,-252 720.3027,-251.0618 716.3161,-250.009 712.3286,-248.8959"/>
<polygon fill="#000000" stroke="#000000" points="713.0624,-245.4645 702.4829,-246.0356 711.1094,-252.1865 713.0624,-245.4645"/>
</g>
<!-- nonBlank()&#45;&gt;getWord() -->
<g id="edge24" class="edge">
<title>nonBlank()-&gt;getWord()</title>
<path fill="none" stroke="#000000" d="M1052.3622,-289.3008C1065.9635,-279.5079 1083.3221,-267.0097 1098.0949,-256.3733"/>
<polygon fill="#000000" stroke="#000000" points="1100.3758,-259.0439 1106.4461,-250.3604 1096.2856,-253.3631 1100.3758,-259.0439"/>
</g>
<!-- nonBlank()&#45;&gt;skipCh() -->
<g id="edge25" class="edge">
<title>nonBlank()-&gt;skipCh()</title>
<path fill="none" stroke="#000000" d="M995.7753,-291.6028C968.8371,-279.9887 930.858,-263.6145 902.2742,-251.2909"/>
<polygon fill="#000000" stroke="#000000" points="903.5389,-248.0248 892.9703,-247.2796 900.7675,-254.4528 903.5389,-248.0248"/>
</g>
<!-- opClass() -->
<g id="node20" class="node">
<title>opClass()</title>
<ellipse fill="none" stroke="#000000" cx="461.1689" cy="-234" rx="48.0897" ry="18"/>
<text text-anchor="middle" x="461.1689" y="-229.8" font-family="Times,serif" font-size="14.00" fill="#000000">opClass()</text>
</g>
<!-- opClass()&#45;&gt;readInstructions() -->
<g id="edge29" class="edge">
<title>opClass()-&gt;readInstructions()</title>
<path fill="none" stroke="#000000" d="M496.9254,-221.6228C529.6591,-210.2918 578.5419,-193.3709 615.8789,-180.4465"/>
<polygon fill="#000000" stroke="#000000" points="617.287,-183.6629 625.592,-177.0843 614.9972,-177.048 617.287,-183.6629"/>
</g>
<!-- opClass()&#45;&gt;stepTM() -->
<g id="edge30" class="edge">
<title>opClass()-&gt;stepTM()</title>
<path fill="none" stroke="#000000" d="M424.2833,-222.3519C384.8795,-209.9086 322.3362,-190.1581 279.6059,-176.6643"/>
<polygon fill="#000000" stroke="#000000" points="280.5912,-173.3052 270.0014,-173.6313 278.4833,-179.9803 280.5912,-173.3052"/>
</g>
<!-- writeInstruction() -->
<g id="node21" class="node">
<title>writeInstruction()</title>
<ellipse fill="none" stroke="#000000" cx="454.1689" cy="-162" rx="79.2864" ry="18"/>
<text text-anchor="middle" x="454.1689" y="-157.8" font-family="Times,serif" font-size="14.00" fill="#000000">writeInstruction()</text>
</g>
<!-- opClass()&#45;&gt;writeInstruction() -->
<g id="edge28" class="edge">
<title>opClass()-&gt;writeInstruction()</title>
<path fill="none" stroke="#000000" d="M459.4025,-215.8314C458.6538,-208.131 457.7636,-198.9743 456.9316,-190.4166"/>
<polygon fill="#000000" stroke="#000000" points="460.4104,-190.0276 455.9591,-180.4133 453.4432,-190.7051 460.4104,-190.0276"/>
</g>
<!-- writeInstruction()&#45;&gt;doCommand() -->
<g id="edge46" class="edge">
<title>writeInstruction()-&gt;doCommand()</title>
<path fill="none" stroke="#000000" d="M424.6275,-145.1192C407.1249,-135.1177 384.7687,-122.3427 365.9868,-111.6102"/>
<polygon fill="#000000" stroke="#000000" points="367.5096,-108.4493 357.0907,-106.5267 364.0366,-114.527 367.5096,-108.4493"/>
</g>
<!-- printf() -->
<g id="node22" class="node">
<title>printf()</title>
<ellipse fill="none" stroke="#000000" cx="347.1689" cy="-306" rx="38.8401" ry="18"/>
<text text-anchor="middle" x="347.1689" y="-301.8" font-family="Times,serif" font-size="14.00" fill="#000000">printf()</text>
</g>
<!-- printf()&#45;&gt;doCommand() -->
<g id="edge34" class="edge">
<title>printf()-&gt;doCommand()</title>
<path fill="none" stroke="#000000" d="M345.5816,-287.9555C342.2706,-250.3144 334.6066,-163.1867 330.6428,-118.1246"/>
<polygon fill="#000000" stroke="#000000" points="334.1279,-117.7999 329.765,-108.1451 327.1548,-118.4133 334.1279,-117.7999"/>
</g>
<!-- printf()&#45;&gt;main() -->
<g id="edge35" class="edge">
<title>printf()-&gt;main()</title>
<path fill="none" stroke="#000000" d="M308.7877,-302.7076C223.8013,-295.0298 25.6815,-274.8457 6.1689,-252 -4.2224,-239.8336 .9763,-231.134 6.1689,-216 19.3255,-177.6547 29.5554,-168.0795 62.1689,-144 134.8172,-90.3616 165.0407,-95.7389 252.1689,-72 346.0433,-46.423 459.1114,-30.5488 521.0325,-23.0856"/>
<polygon fill="#000000" stroke="#000000" points="521.7334,-26.5271 531.252,-21.8745 520.9095,-19.5757 521.7334,-26.5271"/>
</g>
<!-- printf()&#45;&gt;error() -->
<g id="edge32" class="edge">
<title>printf()-&gt;error()</title>
<path fill="none" stroke="#000000" d="M380.1934,-296.3693C414.8135,-286.0875 470.6752,-268.9711 518.1689,-252 520.6822,-251.1019 523.2635,-250.1501 525.8574,-249.1715"/>
<polygon fill="#000000" stroke="#000000" points="527.1397,-252.4283 535.2065,-245.5597 524.6171,-245.8986 527.1397,-252.4283"/>
</g>
<!-- printf()&#45;&gt;stepTM() -->
<g id="edge33" class="edge">
<title>printf()-&gt;stepTM()</title>
<path fill="none" stroke="#000000" d="M310.7283,-299.5736C283.9333,-292.7352 249.3169,-278.9966 232.1689,-252 220.5755,-233.7483 221.8074,-208.9324 225.387,-189.9812"/>
<polygon fill="#000000" stroke="#000000" points="228.8227,-190.6532 227.5506,-180.135 221.9858,-189.1508 228.8227,-190.6532"/>
</g>
<!-- printf()&#45;&gt;writeInstruction() -->
<g id="edge31" class="edge">
<title>printf()-&gt;writeInstruction()</title>
<path fill="none" stroke="#000000" d="M356.9928,-288.4571C367.7044,-269.8475 385.7863,-239.894 404.1689,-216 411.7612,-206.1314 420.8188,-195.9509 429.1259,-187.126"/>
<polygon fill="#000000" stroke="#000000" points="431.7892,-189.4053 436.1771,-179.7618 426.7332,-184.5641 431.7892,-189.4053"/>
</g>
<!-- strcat() -->
<g id="node23" class="node">
<title>strcat()</title>
<ellipse fill="none" stroke="#000000" cx="667.1689" cy="-90" rx="38.2549" ry="18"/>
<text text-anchor="middle" x="667.1689" y="-85.8" font-family="Times,serif" font-size="14.00" fill="#000000">strcat()</text>
</g>
<!-- strcat()&#45;&gt;main() -->
<g id="edge39" class="edge">
<title>strcat()-&gt;main()</title>
<path fill="none" stroke="#000000" d="M645.9615,-74.7307C631.546,-64.3515 612.2868,-50.4849 596.4178,-39.0593"/>
<polygon fill="#000000" stroke="#000000" points="598.1633,-36.0032 588.0028,-33.0004 594.0731,-41.6839 598.1633,-36.0032"/>
</g>
<!-- strchr() -->
<g id="node24" class="node">
<title>strchr()</title>
<ellipse fill="none" stroke="#000000" cx="763.1689" cy="-90" rx="39.4003" ry="18"/>
<text text-anchor="middle" x="763.1689" y="-85.8" font-family="Times,serif" font-size="14.00" fill="#000000">strchr()</text>
</g>
<!-- strchr()&#45;&gt;main() -->
<g id="edge40" class="edge">
<title>strchr()-&gt;main()</title>
<path fill="none" stroke="#000000" d="M732.1121,-78.5914C698.0258,-66.0699 643.2424,-45.9454 606.2583,-32.3594"/>
<polygon fill="#000000" stroke="#000000" points="607.391,-29.0468 596.7974,-28.8839 604.9772,-35.6175 607.391,-29.0468"/>
</g>
<!-- strcpy() -->
<g id="node25" class="node">
<title>strcpy()</title>
<ellipse fill="none" stroke="#000000" cx="862.1689" cy="-90" rx="41.1277" ry="18"/>
<text text-anchor="middle" x="862.1689" y="-85.8" font-family="Times,serif" font-size="14.00" fill="#000000">strcpy()</text>
</g>
<!-- strcpy()&#45;&gt;main() -->
<g id="edge41" class="edge">
<title>strcpy()-&gt;main()</title>
<path fill="none" stroke="#000000" d="M830.8034,-78.2574C824.3556,-76.0338 817.5784,-73.833 811.1689,-72 742.4331,-52.3428 661.0919,-35.6184 611.8506,-26.1954"/>
<polygon fill="#000000" stroke="#000000" points="612.3236,-22.7227 601.8464,-24.297 611.0185,-29.6 612.3236,-22.7227"/>
</g>
<!-- strlen() -->
<g id="node26" class="node">
<title>strlen()</title>
<ellipse fill="none" stroke="#000000" cx="280.1689" cy="-234" rx="38.8382" ry="18"/>
<text text-anchor="middle" x="280.1689" y="-229.8" font-family="Times,serif" font-size="14.00" fill="#000000">strlen()</text>
</g>
<!-- strlen()&#45;&gt;doCommand() -->
<g id="edge44" class="edge">
<title>strlen()-&gt;doCommand()</title>
<path fill="none" stroke="#000000" d="M286.1511,-216.0535C294.379,-191.3696 309.2652,-146.7111 318.93,-117.7167"/>
<polygon fill="#000000" stroke="#000000" points="322.2694,-118.7664 322.1113,-108.1727 315.6286,-116.5527 322.2694,-118.7664"/>
</g>
<!-- strlen()&#45;&gt;readInstructions() -->
<g id="edge42" class="edge">
<title>strlen()-&gt;readInstructions()</title>
<path fill="none" stroke="#000000" d="M316.4157,-227.2911C380.395,-215.4492 514.4345,-190.6398 597.6188,-175.2432"/>
<polygon fill="#000000" stroke="#000000" points="598.307,-178.6754 607.503,-173.4137 597.033,-171.7923 598.307,-178.6754"/>
</g>
<!-- strlen()&#45;&gt;stepTM() -->
<g id="edge43" class="edge">
<title>strlen()-&gt;stepTM()</title>
<path fill="none" stroke="#000000" d="M268.7915,-216.5708C263.2328,-208.0553 256.4279,-197.6308 250.2605,-188.183"/>
<polygon fill="#000000" stroke="#000000" points="253.0015,-185.9789 244.6044,-179.5182 247.1398,-189.8052 253.0015,-185.9789"/>
</g>
<!-- strncmp() -->
<g id="node27" class="node">
<title>strncmp()</title>
<ellipse fill="none" stroke="#000000" cx="973.1689" cy="-234" rx="48.652" ry="18"/>
<text text-anchor="middle" x="973.1689" y="-229.8" font-family="Times,serif" font-size="14.00" fill="#000000">strncmp()</text>
</g>
<!-- strncmp()&#45;&gt;readInstructions() -->
<g id="edge45" class="edge">
<title>strncmp()-&gt;readInstructions()</title>
<path fill="none" stroke="#000000" d="M936.8237,-221.9824C929.9931,-219.8778 922.8871,-217.7912 916.1689,-216 857.2448,-200.2897 789.5311,-185.7274 739.9218,-175.6939"/>
<polygon fill="#000000" stroke="#000000" points="740.4289,-172.2259 729.9351,-173.6858 739.0489,-179.0885 740.4289,-172.2259"/>
</g>
</g>
</svg>