<?xml version="1.0" encoding="UTF-8" standalone="no"?>
<!DOCTYPE svg PUBLIC "-//W3C//DTD SVG 1.1//EN" "http://www.w3.org/Graphics/SVG/1.1/DTD/svg11.dtd">
<!-- Generated by graphviz version 2.40.1 (20161225.0304)
 -->
<!-- Title: G Pages: 1 -->
<svg width="5865pt" height="404pt" viewBox="0.00 0.00 5865.22 404.00" xmlns="http://www.w3.org/2000/svg" xmlns:xlink="http://www.w3.org/1999/xlink">
<g id="graph0" class="graph" transform="scale(1 1) rotate(0) translate(4 400)">
<title>G</title>
<polygon fill="#ffffff" stroke="transparent" points="-4,4 -4,-400 5861.222,-400 5861.222,4 -4,4"/>
<!-- DADDR_SIZE -->
<g id="node1" class="node">
<title>DADDR_SIZE</title>
<ellipse fill="none" stroke="#000000" cx="1729.2469" cy="-234" rx="70.6451" ry="18"/>
<text text-anchor="middle" x="1729.2469" y="-229.8" font-family="Times,serif" font-size="14.00" fill="#000000">DADDR_SIZE</text>
</g>
<!-- readInstructions() -->
<g id="node2" class="node">
<title>readInstructions()</title>
<ellipse fill="none" stroke="#000000" cx="1343.2469" cy="-162" rx="79.8507" ry="18"/>
<text text-anchor="middle" x="1343.2469" y="-157.8" font-family="Times,serif" font-size="14.00" fill="#000000">readInstructions()</text>
</g>
<!-- DADDR_SIZE&#45;&gt;readInstructions() -->
<g id="edge1" class="edge">
<title>DADDR_SIZE-&gt;readInstructions()</title>
<path fill="none" stroke="#000000" d="M1676.8216,-221.8368C1667.6466,-219.8133 1658.18,-217.7922 1649.2469,-216 1570.7109,-200.244 1480.3353,-184.5989 1418.2752,-174.2366"/>
<polygon fill="#000000" stroke="#000000" points="1418.6198,-170.7459 1408.1808,-172.556 1417.4702,-177.6508 1418.6198,-170.7459"/>
</g>
<!-- stepTM() -->
<g id="node3" class="node">
<title>stepTM()</title>
<ellipse fill="none" stroke="#000000" cx="3593.2469" cy="-162" rx="47.5081" ry="18"/>
<text text-anchor="middle" x="3593.2469" y="-157.8" font-family="Times,serif" font-size="14.00" fill="#000000">stepTM()</text>
</g>
<!-- DADDR_SIZE&#45;&gt;stepTM() -->
<g id="edge2" class="edge">
<title>DADDR_SIZE-&gt;stepTM()</title>
<path fill="none" stroke="#000000" d="M1779.3447,-221.1907C1789.1979,-219.108 1799.5016,-217.2323 1809.2469,-216 1983.4737,-193.9682 3248.1127,-168.6106 3535.3289,-163.0945"/>
<polygon fill="#000000" stroke="#000000" points="3535.5943,-166.5901 3545.5253,-162.8991 3535.4601,-159.5914 3535.5943,-166.5901"/>
</g>
<!-- doCommand() -->
<g id="node4" class="node">
<title>doCommand()</title>
<ellipse fill="none" stroke="#000000" cx="2107.2469" cy="-90" rx="67.2196" ry="18"/>
<text text-anchor="middle" x="2107.2469" y="-85.8" font-family="Times,serif" font-size="14.00" fill="#000000">doCommand()</text>
</g>
<!-- DADDR_SIZE&#45;&gt;doCommand() -->
<g id="edge3" class="edge">
<title>DADDR_SIZE-&gt;doCommand()</title>
<path fill="none" stroke="#000000" d="M1747.0641,-216.5073C1773.4225,-190.6645 1819.9653,-145.1824 1822.2469,-144 1858.5772,-125.1723 1963.6282,-108.488 2035.5127,-98.8127"/>
<polygon fill="#000000" stroke="#000000" points="2036.4142,-102.2237 2045.8659,-97.4366 2035.4919,-95.2847 2036.4142,-102.2237"/>
</g>
<!-- main() -->
<g id="node16" class="node">
<title>main()</title>
<ellipse fill="none" stroke="#000000" cx="2516.2469" cy="-18" rx="36.5555" ry="18"/>
<text text-anchor="middle" x="2516.2469" y="-13.8" font-family="Times,serif" font-size="14.00" fill="#000000">main()</text>
</g>
<!-- readInstructions()&#45;&gt;main() -->
<g id="edge135" class="edge">
<title>readInstructions()-&gt;main()</title>
<path fill="none" stroke="#000000" d="M1411.5483,-152.6236C1535.1077,-135.7598 1804.0281,-99.5084 2031.2469,-72 2192.285,-52.5038 2383.7361,-31.9642 2470.0259,-22.8477"/>
<polygon fill="#000000" stroke="#000000" points="2470.4411,-26.3234 2480.0187,-21.7934 2469.7066,-19.362 2470.4411,-26.3234"/>
</g>
<!-- stepTM()&#45;&gt;doCommand() -->
<g id="edge151" class="edge">
<title>stepTM()-&gt;doCommand()</title>
<path fill="none" stroke="#000000" d="M3545.763,-161.4207C3331.7196,-158.6191 2455.2544,-145.0616 2183.2469,-108 2177.3081,-107.1908 2171.1543,-106.1244 2165.0367,-104.9138"/>
<polygon fill="#000000" stroke="#000000" points="2165.327,-101.3981 2154.8201,-102.76 2163.883,-108.2476 2165.327,-101.3981"/>
</g>
<!-- doCommand()&#45;&gt;main() -->
<g id="edge39" class="edge">
<title>doCommand()-&gt;main()</title>
<path fill="none" stroke="#000000" d="M2157.01,-77.6739C2165.7308,-75.6685 2174.7361,-73.6956 2183.2469,-72 2285.2653,-51.6744 2406.0148,-33.5593 2470.3971,-24.3713"/>
<polygon fill="#000000" stroke="#000000" points="2471.2039,-27.7919 2480.6126,-22.9209 2470.2199,-20.8614 2471.2039,-27.7919"/>
</g>
<!-- FALSE -->
<g id="node5" class="node">
<title>FALSE</title>
<ellipse fill="none" stroke="#000000" cx="394.2469" cy="-378" rx="40.5867" ry="18"/>
<text text-anchor="middle" x="394.2469" y="-373.8" font-family="Times,serif" font-size="14.00" fill="#000000">FALSE</text>
</g>
<!-- FALSE&#45;&gt;doCommand() -->
<g id="edge9" class="edge">
<title>FALSE-&gt;doCommand()</title>
<path fill="none" stroke="#000000" d="M353.864,-376.0334C279.7908,-371.619 126.2119,-358.4643 87.2469,-324 26.8777,-270.6037 39.4911,-184.3699 109.2469,-144 151.5322,-119.5282 1666.5388,-96.3106 2029.6263,-91.0895"/>
<polygon fill="#000000" stroke="#000000" points="2029.827,-94.5871 2039.7757,-90.9439 2029.7265,-87.5878 2029.827,-94.5871"/>
</g>
<!-- nonBlank() -->
<g id="node6" class="node">
<title>nonBlank()</title>
<ellipse fill="none" stroke="#000000" cx="643.2469" cy="-306" rx="55.0381" ry="18"/>
<text text-anchor="middle" x="643.2469" y="-301.8" font-family="Times,serif" font-size="14.00" fill="#000000">nonBlank()</text>
</g>
<!-- FALSE&#45;&gt;nonBlank() -->
<g id="edge4" class="edge">
<title>FALSE-&gt;nonBlank()</title>
<path fill="none" stroke="#000000" d="M428.3472,-368.1397C470.5894,-355.9251 542.9559,-334.9998 591.9183,-320.842"/>
<polygon fill="#000000" stroke="#000000" points="593.0529,-324.1574 601.6871,-318.0173 591.1084,-317.4329 593.0529,-324.1574"/>
</g>
<!-- getNum() -->
<g id="node7" class="node">
<title>getNum()</title>
<ellipse fill="none" stroke="#000000" cx="591.2469" cy="-234" rx="48.654" ry="18"/>
<text text-anchor="middle" x="591.2469" y="-229.8" font-family="Times,serif" font-size="14.00" fill="#000000">getNum()</text>
</g>
<!-- FALSE&#45;&gt;getNum() -->
<g id="edge5" class="edge">
<title>FALSE-&gt;getNum()</title>
<path fill="none" stroke="#000000" d="M433.9773,-373.995C514.2772,-365.4995 689.774,-344.7456 707.2469,-324 717.5541,-311.7623 715.8481,-301.4915 707.2469,-288 698.9857,-275.0418 665.7703,-260.3169 636.9876,-249.5202"/>
<polygon fill="#000000" stroke="#000000" points="638.0325,-246.1755 627.4389,-246.0175 635.6218,-252.7473 638.0325,-246.1755"/>
</g>
<!-- getWord() -->
<g id="node8" class="node">
<title>getWord()</title>
<ellipse fill="none" stroke="#000000" cx="281.2469" cy="-234" rx="51.005" ry="18"/>
<text text-anchor="middle" x="281.2469" y="-229.8" font-family="Times,serif" font-size="14.00" fill="#000000">getWord()</text>
</g>
<!-- FALSE&#45;&gt;getWord() -->
<g id="edge6" class="edge">
<title>FALSE-&gt;getWord()</title>
<path fill="none" stroke="#000000" d="M358.1489,-369.5489C319.5043,-359.6845 262.0057,-342.3664 249.2469,-324 235.7093,-304.5124 247.3017,-278.693 260.1615,-259.7078"/>
<polygon fill="#000000" stroke="#000000" points="263.0611,-261.6707 266.0735,-251.5131 257.3843,-257.5752 263.0611,-261.6707"/>
</g>
<!-- skipCh() -->
<g id="node9" class="node">
<title>skipCh()</title>
<ellipse fill="none" stroke="#000000" cx="129.2469" cy="-234" rx="44.6626" ry="18"/>
<text text-anchor="middle" x="129.2469" y="-229.8" font-family="Times,serif" font-size="14.00" fill="#000000">skipCh()</text>
</g>
<!-- FALSE&#45;&gt;skipCh() -->
<g id="edge7" class="edge">
<title>FALSE-&gt;skipCh()</title>
<path fill="none" stroke="#000000" d="M353.7331,-376.7708C280.4156,-373.6012 130.3256,-362.4603 98.2469,-324 82.7562,-305.4276 95.1067,-278.6781 108.5294,-259.1698"/>
<polygon fill="#000000" stroke="#000000" points="111.3995,-261.1744 114.4721,-251.0348 105.747,-257.0452 111.3995,-261.1744"/>
</g>
<!-- error() -->
<g id="node10" class="node">
<title>error()</title>
<ellipse fill="none" stroke="#000000" cx="1137.2469" cy="-234" rx="36.4528" ry="18"/>
<text text-anchor="middle" x="1137.2469" y="-229.8" font-family="Times,serif" font-size="14.00" fill="#000000">error()</text>
</g>
<!-- FALSE&#45;&gt;error() -->
<g id="edge8" class="edge">
<title>FALSE-&gt;error()</title>
<path fill="none" stroke="#000000" d="M434.3563,-374.5183C561.3964,-363.4455 947.264,-329.4497 959.2469,-324 980.4241,-314.3688 977.5763,-300.4218 997.2469,-288 1006.1689,-282.3658 1059.8756,-262.2332 1098.1051,-248.211"/>
<polygon fill="#000000" stroke="#000000" points="1099.7513,-251.3357 1107.9401,-244.613 1097.3463,-244.7618 1099.7513,-251.3357"/>
</g>
<!-- nonBlank()&#45;&gt;readInstructions() -->
<g id="edge84" class="edge">
<title>nonBlank()-&gt;readInstructions()</title>
<path fill="none" stroke="#000000" d="M597.643,-295.8747C574.0784,-288.0807 547.3663,-274.6603 533.2469,-252 524.7856,-238.4204 522.235,-227.6076 533.2469,-216 559.3983,-188.4339 1178.4274,-183.6696 1216.2469,-180 1232.8585,-178.3882 1250.6284,-176.1774 1267.4547,-173.8565"/>
<polygon fill="#000000" stroke="#000000" points="1268.3763,-177.2614 1277.7908,-172.4015 1267.4005,-170.3297 1268.3763,-177.2614"/>
</g>
<!-- nonBlank()&#45;&gt;getNum() -->
<g id="edge80" class="edge">
<title>nonBlank()-&gt;getNum()</title>
<path fill="none" stroke="#000000" d="M630.393,-288.2022C624.2219,-279.6576 616.7099,-269.2564 609.9229,-259.859"/>
<polygon fill="#000000" stroke="#000000" points="612.6453,-257.6506 603.953,-251.593 606.9706,-261.7491 612.6453,-257.6506"/>
</g>
<!-- nonBlank()&#45;&gt;getWord() -->
<g id="edge81" class="edge">
<title>nonBlank()-&gt;getWord()</title>
<path fill="none" stroke="#000000" d="M594.7292,-297.4264C516.8083,-283.6198 370.0662,-257.4517 346.2469,-252 341.1694,-250.8379 335.8937,-249.5361 330.6422,-248.1783"/>
<polygon fill="#000000" stroke="#000000" points="331.1947,-244.7038 320.6314,-245.5202 329.3982,-251.4693 331.1947,-244.7038"/>
</g>
<!-- nonBlank()&#45;&gt;skipCh() -->
<g id="edge82" class="edge">
<title>nonBlank()-&gt;skipCh()</title>
<path fill="none" stroke="#000000" d="M595.6061,-296.9558C578.5016,-293.8774 559.0444,-290.5689 541.2469,-288 399.5955,-267.5539 362.7027,-273.7582 221.2469,-252 207.5312,-249.8903 192.746,-247.1891 179.1254,-244.5245"/>
<polygon fill="#000000" stroke="#000000" points="179.4644,-241.0234 168.9736,-242.5044 178.0982,-247.8888 179.4644,-241.0234"/>
</g>
<!-- atEOL() -->
<g id="node21" class="node">
<title>atEOL()</title>
<ellipse fill="none" stroke="#000000" cx="488.2469" cy="-162" rx="43.4144" ry="18"/>
<text text-anchor="middle" x="488.2469" y="-157.8" font-family="Times,serif" font-size="14.00" fill="#000000">atEOL()</text>
</g>
<!-- nonBlank()&#45;&gt;atEOL() -->
<g id="edge83" class="edge">
<title>nonBlank()-&gt;atEOL()</title>
<path fill="none" stroke="#000000" d="M595.2934,-296.9832C520.121,-282.7389 382.681,-256.2076 379.2469,-252 369.1301,-239.6044 370.8102,-229.5949 379.2469,-216 392.6446,-194.411 417.5243,-181.1873 440.1345,-173.2344"/>
<polygon fill="#000000" stroke="#000000" points="441.2192,-176.5622 449.6455,-170.1397 439.0532,-169.9057 441.2192,-176.5622"/>
</g>
<!-- getNum()&#45;&gt;readInstructions() -->
<g id="edge53" class="edge">
<title>getNum()-&gt;readInstructions()</title>
<path fill="none" stroke="#000000" d="M633.6102,-224.9477C650.261,-221.6812 669.5846,-218.2489 687.2469,-216 921.0144,-186.2345 981.8744,-204.551 1216.2469,-180 1232.7539,-178.2709 1250.414,-176.0229 1267.1566,-173.7047"/>
<polygon fill="#000000" stroke="#000000" points="1268.0298,-177.1163 1277.4441,-172.2562 1267.0537,-170.1847 1268.0298,-177.1163"/>
</g>
<!-- getNum()&#45;&gt;stepTM() -->
<g id="edge54" class="edge">
<title>getNum()-&gt;stepTM()</title>
<path fill="none" stroke="#000000" d="M633.082,-224.5773C649.8323,-221.2191 669.3648,-217.8202 687.2469,-216 1141.1936,-169.7927 2284.0397,-188.8133 2740.2469,-180 3039.382,-174.2211 3397.5034,-166.3557 3535.3041,-163.294"/>
<polygon fill="#000000" stroke="#000000" points="3535.7009,-166.7861 3545.6206,-163.0646 3535.5452,-159.7878 3535.7009,-166.7861"/>
</g>
<!-- getNum()&#45;&gt;doCommand() -->
<g id="edge55" class="edge">
<title>getNum()-&gt;doCommand()</title>
<path fill="none" stroke="#000000" d="M597.9976,-215.981C607.1163,-194.5133 625.6034,-159.5963 654.2469,-144 715.0127,-110.9132 1737.6971,-94.889 2029.8698,-90.9723"/>
<polygon fill="#000000" stroke="#000000" points="2029.9999,-94.471 2039.9524,-90.8381 2029.9066,-87.4716 2029.9999,-94.471"/>
</g>
<!-- getWord()&#45;&gt;readInstructions() -->
<g id="edge56" class="edge">
<title>getWord()-&gt;readInstructions()</title>
<path fill="none" stroke="#000000" d="M325.4474,-224.5367C342.2194,-221.3009 361.5417,-217.997 379.2469,-216 749.2448,-174.2675 845.4739,-214.1663 1216.2469,-180 1233.1155,-178.4456 1251.173,-176.2256 1268.2233,-173.8728"/>
<polygon fill="#000000" stroke="#000000" points="1268.7158,-177.3381 1278.1292,-172.4762 1267.7385,-170.4066 1268.7158,-177.3381"/>
</g>
<!-- getWord()&#45;&gt;doCommand() -->
<g id="edge57" class="edge">
<title>getWord()-&gt;doCommand()</title>
<path fill="none" stroke="#000000" d="M302.2581,-217.1782C330.6899,-195.5532 383.9005,-159.0063 436.2469,-144 590.2244,-99.8589 1721.0829,-91.6913 2029.6537,-90.2789"/>
<polygon fill="#000000" stroke="#000000" points="2029.8629,-93.7781 2039.8471,-90.2333 2029.8316,-86.7781 2029.8629,-93.7781"/>
</g>
<!-- skipCh()&#45;&gt;readInstructions() -->
<g id="edge139" class="edge">
<title>skipCh()-&gt;readInstructions()</title>
<path fill="none" stroke="#000000" d="M162.8918,-222.0841C171.0894,-219.6422 179.9024,-217.3943 188.2469,-216 639.1646,-140.6563 760.843,-220.1333 1216.2469,-180 1233.2143,-178.5047 1251.38,-176.2961 1268.5132,-173.9339"/>
<polygon fill="#000000" stroke="#000000" points="1269.052,-177.3926 1278.4648,-172.5295 1268.0738,-170.4613 1269.052,-177.3926"/>
</g>
<!-- error()&#45;&gt;readInstructions() -->
<g id="edge41" class="edge">
<title>error()-&gt;readInstructions()</title>
<path fill="none" stroke="#000000" d="M1166.5725,-223.3746C1173.3557,-220.9358 1180.5482,-218.3651 1187.2469,-216 1221.2653,-203.9894 1259.5466,-190.7343 1289.6737,-180.3624"/>
<polygon fill="#000000" stroke="#000000" points="1290.8354,-183.6642 1299.153,-177.1015 1288.5583,-177.0449 1290.8354,-183.6642"/>
</g>
<!-- IADDR_SIZE -->
<g id="node11" class="node">
<title>IADDR_SIZE</title>
<ellipse fill="none" stroke="#000000" cx="2358.2469" cy="-234" rx="66.6325" ry="18"/>
<text text-anchor="middle" x="2358.2469" y="-229.8" font-family="Times,serif" font-size="14.00" fill="#000000">IADDR_SIZE</text>
</g>
<!-- IADDR_SIZE&#45;&gt;readInstructions() -->
<g id="edge11" class="edge">
<title>IADDR_SIZE-&gt;readInstructions()</title>
<path fill="none" stroke="#000000" d="M2310.2465,-221.2909C2301.0096,-219.2268 2291.3706,-217.3323 2282.2469,-216 2199.5896,-203.9299 1649.1274,-176.654 1431.527,-166.1929"/>
<polygon fill="#000000" stroke="#000000" points="1431.5763,-162.6913 1421.4199,-165.7076 1431.2405,-169.6832 1431.5763,-162.6913"/>
</g>
<!-- IADDR_SIZE&#45;&gt;stepTM() -->
<g id="edge12" class="edge">
<title>IADDR_SIZE-&gt;stepTM()</title>
<path fill="none" stroke="#000000" d="M2414.6962,-224.2592C2434.4296,-221.1738 2456.7669,-218.0391 2477.2469,-216 2880.732,-175.8278 3369.3774,-165.2562 3535.0871,-162.7293"/>
<polygon fill="#000000" stroke="#000000" points="3535.5838,-166.2224 3545.5307,-162.5743 3535.4799,-159.2232 3535.5838,-166.2224"/>
</g>
<!-- IADDR_SIZE&#45;&gt;doCommand() -->
<g id="edge13" class="edge">
<title>IADDR_SIZE-&gt;doCommand()</title>
<path fill="none" stroke="#000000" d="M2321.3233,-218.9751C2297.6611,-208.8935 2266.5643,-194.7916 2240.2469,-180 2220.502,-168.9024 2172.2444,-135.6371 2139.6214,-112.8138"/>
<polygon fill="#000000" stroke="#000000" points="2141.4794,-109.842 2131.2817,-106.9686 2137.4618,-115.5743 2141.4794,-109.842"/>
</g>
<!-- writeInstruction() -->
<g id="node12" class="node">
<title>writeInstruction()</title>
<ellipse fill="none" stroke="#000000" cx="2652.2469" cy="-162" rx="79.2864" ry="18"/>
<text text-anchor="middle" x="2652.2469" y="-157.8" font-family="Times,serif" font-size="14.00" fill="#000000">writeInstruction()</text>
</g>
<!-- IADDR_SIZE&#45;&gt;writeInstruction() -->
<g id="edge10" class="edge">
<title>IADDR_SIZE-&gt;writeInstruction()</title>
<path fill="none" stroke="#000000" d="M2407.7876,-221.8676C2457.4717,-209.7001 2534.1897,-190.912 2588.4107,-177.6334"/>
<polygon fill="#000000" stroke="#000000" points="2589.3812,-180.9992 2598.2616,-175.2209 2587.7161,-174.2001 2589.3812,-180.9992"/>
</g>
<!-- writeInstruction()&#45;&gt;doCommand() -->
<g id="edge163" class="edge">
<title>writeInstruction()-&gt;doCommand()</title>
<path fill="none" stroke="#000000" d="M2581.7192,-153.718C2555.5099,-150.6505 2525.5218,-147.1525 2498.2469,-144 2358.2675,-127.8206 2322.0506,-132.2805 2183.2469,-108 2177.5996,-107.0121 2171.7445,-105.8596 2165.9044,-104.6237"/>
<polygon fill="#000000" stroke="#000000" points="2166.6471,-101.2034 2156.1294,-102.4794 2165.1472,-108.0409 2166.6471,-101.2034"/>
</g>
<!-- LINESIZE -->
<g id="node13" class="node">
<title>LINESIZE</title>
<ellipse fill="none" stroke="#000000" cx="1871.2469" cy="-234" rx="53.3071" ry="18"/>
<text text-anchor="middle" x="1871.2469" y="-229.8" font-family="Times,serif" font-size="14.00" fill="#000000">LINESIZE</text>
</g>
<!-- LINESIZE&#45;&gt;readInstructions() -->
<g id="edge14" class="edge">
<title>LINESIZE-&gt;readInstructions()</title>
<path fill="none" stroke="#000000" d="M1832.1345,-221.5726C1824.5949,-219.4826 1816.7182,-217.5064 1809.2469,-216 1678.4873,-189.6353 1524.302,-174.9027 1430.1866,-167.7097"/>
<polygon fill="#000000" stroke="#000000" points="1430.3767,-164.2142 1420.142,-166.9533 1429.8509,-171.1945 1430.3767,-164.2142"/>
</g>
<!-- LINESIZE&#45;&gt;stepTM() -->
<g id="edge15" class="edge">
<title>LINESIZE-&gt;stepTM()</title>
<path fill="none" stroke="#000000" d="M1909.5598,-221.4354C1917.6321,-219.2463 1926.1555,-217.2678 1934.2469,-216 2094.8171,-190.8415 3260.7554,-168.0885 3535.4093,-163.0393"/>
<polygon fill="#000000" stroke="#000000" points="3535.624,-166.5361 3545.5582,-162.8534 3535.4957,-159.5373 3535.624,-166.5361"/>
</g>
<!-- LINESIZE&#45;&gt;doCommand() -->
<g id="edge16" class="edge">
<title>LINESIZE-&gt;doCommand()</title>
<path fill="none" stroke="#000000" d="M1909.8878,-221.4386C1945.4275,-209.4866 1995.1241,-191.6465 2012.2469,-180 2030.194,-167.7928 2029.7054,-159.1516 2045.2469,-144 2055.7535,-133.757 2067.8193,-123.033 2078.498,-113.866"/>
<polygon fill="#000000" stroke="#000000" points="2080.9943,-116.3377 2086.3449,-107.1931 2076.4595,-111.0051 2080.9943,-116.3377"/>
</g>
<!-- NO_REGS -->
<g id="node14" class="node">
<title>NO_REGS</title>
<ellipse fill="none" stroke="#000000" cx="750.2469" cy="-234" rx="54.4739" ry="18"/>
<text text-anchor="middle" x="750.2469" y="-229.8" font-family="Times,serif" font-size="14.00" fill="#000000">NO_REGS</text>
</g>
<!-- NO_REGS&#45;&gt;readInstructions() -->
<g id="edge17" class="edge">
<title>NO_REGS-&gt;readInstructions()</title>
<path fill="none" stroke="#000000" d="M789.9159,-221.5717C797.9075,-219.4289 806.2956,-217.4335 814.2469,-216 1005.1634,-181.5806 1057.0409,-206.2798 1249.2469,-180 1257.4706,-178.8756 1266.064,-177.5046 1274.5697,-176.0262"/>
<polygon fill="#000000" stroke="#000000" points="1275.261,-179.4581 1284.487,-174.2495 1274.0265,-172.5678 1275.261,-179.4581"/>
</g>
<!-- NO_REGS&#45;&gt;doCommand() -->
<g id="edge18" class="edge">
<title>NO_REGS-&gt;doCommand()</title>
<path fill="none" stroke="#000000" d="M789.9237,-221.6141C797.9145,-219.4678 806.3005,-217.4603 814.2469,-216 990.6743,-183.5782 1052.738,-253.7741 1216.2469,-180 1237.4528,-170.4321 1232.918,-153.2905 1254.2469,-144 1324.246,-113.5096 1833.0476,-97.142 2029.8343,-91.8966"/>
<polygon fill="#000000" stroke="#000000" points="2030.1893,-95.3886 2040.0934,-91.6257 2030.0045,-88.391 2030.1893,-95.3886"/>
</g>
<!-- NULL -->
<g id="node15" class="node">
<title>NULL</title>
<ellipse fill="none" stroke="#000000" cx="2229.2469" cy="-90" rx="36.5575" ry="18"/>
<text text-anchor="middle" x="2229.2469" y="-85.8" font-family="Times,serif" font-size="14.00" fill="#000000">NULL</text>
</g>
<!-- NULL&#45;&gt;main() -->
<g id="edge19" class="edge">
<title>NULL-&gt;main()</title>
<path fill="none" stroke="#000000" d="M2257.2265,-78.2684C2263.1202,-76.0189 2269.3422,-73.8053 2275.2469,-72 2342.6219,-51.4014 2422.792,-34.9989 2471.576,-25.8919"/>
<polygon fill="#000000" stroke="#000000" points="2472.2956,-29.3183 2481.4937,-24.0604 2471.0244,-22.4347 2472.2956,-29.3183"/>
</g>
<!-- PC_REG -->
<g id="node17" class="node">
<title>PC_REG</title>
<ellipse fill="none" stroke="#000000" cx="5263.2469" cy="-234" rx="46.969" ry="18"/>
<text text-anchor="middle" x="5263.2469" y="-229.8" font-family="Times,serif" font-size="14.00" fill="#000000">PC_REG</text>
</g>
<!-- PC_REG&#45;&gt;stepTM() -->
<g id="edge20" class="edge">
<title>PC_REG-&gt;stepTM()</title>
<path fill="none" stroke="#000000" d="M5228.1162,-221.9879C5219.7332,-219.582 5210.7491,-217.3742 5202.2469,-216 5046.9627,-190.9015 3920.569,-168.1872 3651.0642,-163.0722"/>
<polygon fill="#000000" stroke="#000000" points="3650.7903,-159.5665 3640.7259,-162.8766 3650.6579,-166.5652 3650.7903,-159.5665"/>
</g>
<!-- PC_REG&#45;&gt;doCommand() -->
<g id="edge21" class="edge">
<title>PC_REG-&gt;doCommand()</title>
<path fill="none" stroke="#000000" d="M5227.7805,-221.9743C5219.4905,-219.6007 5210.6313,-217.4103 5202.2469,-216 4861.7703,-158.7289 3995.2899,-156.2358 3650.2469,-144 3324.3536,-132.4433 2506.6545,-149.8032 2183.2469,-108 2177.3027,-107.2317 2171.1453,-106.192 2165.0256,-104.9976"/>
<polygon fill="#000000" stroke="#000000" points="2165.311,-101.4817 2154.8065,-102.8621 2163.8791,-108.3337 2165.311,-101.4817"/>
</g>
<!-- TRUE -->
<g id="node18" class="node">
<title>TRUE</title>
<ellipse fill="none" stroke="#000000" cx="36.2469" cy="-378" rx="36.4955" ry="18"/>
<text text-anchor="middle" x="36.2469" y="-373.8" font-family="Times,serif" font-size="14.00" fill="#000000">TRUE</text>
</g>
<!-- TRUE&#45;&gt;readInstructions() -->
<g id="edge25" class="edge">
<title>TRUE-&gt;readInstructions()</title>
<path fill="none" stroke="#000000" d="M33.7723,-359.7872C30.13,-324.3419 28.2004,-246.8623 75.2469,-216 128.2756,-181.2134 1153.0618,-185.458 1216.2469,-180 1233.2169,-178.5341 1251.3836,-176.3373 1268.517,-173.9772"/>
<polygon fill="#000000" stroke="#000000" points="1269.0557,-177.436 1278.4686,-172.5731 1268.0777,-170.5046 1269.0557,-177.436"/>
</g>
<!-- TRUE&#45;&gt;doCommand() -->
<g id="edge26" class="edge">
<title>TRUE-&gt;doCommand()</title>
<path fill="none" stroke="#000000" d="M31.4269,-359.9427C20.514,-314.4772 -.2512,-195.2617 66.2469,-144 105.8478,-113.4728 1662.0568,-94.8001 2029.8979,-90.8075"/>
<polygon fill="#000000" stroke="#000000" points="2029.9552,-94.3071 2039.9167,-90.6992 2029.8795,-87.3076 2029.9552,-94.3071"/>
</g>
<!-- TRUE&#45;&gt;nonBlank() -->
<g id="edge22" class="edge">
<title>TRUE-&gt;nonBlank()</title>
<path fill="none" stroke="#000000" d="M72.402,-376.3109C159.415,-371.8255 387.1463,-357.5847 574.2469,-324 580.0235,-322.9631 586.0268,-321.693 591.9748,-320.3115"/>
<polygon fill="#000000" stroke="#000000" points="592.9924,-323.6662 601.8828,-317.9032 591.339,-316.8642 592.9924,-323.6662"/>
</g>
<!-- TRUE&#45;&gt;getNum() -->
<g id="edge23" class="edge">
<title>TRUE-&gt;getNum()</title>
<path fill="none" stroke="#000000" d="M72.4208,-376.05C181.5306,-369.9048 502.2889,-349.8097 541.2469,-324 563.0163,-309.5778 576.2228,-282.3058 583.5499,-261.5472"/>
<polygon fill="#000000" stroke="#000000" points="586.9019,-262.5573 586.6863,-251.9646 580.2492,-260.3797 586.9019,-262.5573"/>
</g>
<!-- TRUE&#45;&gt;skipCh() -->
<g id="edge24" class="edge">
<title>TRUE-&gt;skipCh()</title>
<path fill="none" stroke="#000000" d="M37.6965,-359.7052C39.9629,-340.4676 45.7207,-309.9949 60.2469,-288 68.9653,-274.7991 81.9876,-263.4118 94.3782,-254.5433"/>
<polygon fill="#000000" stroke="#000000" points="96.4973,-257.3348 102.7946,-248.8146 92.5585,-251.5481 96.4973,-257.3348"/>
</g>
<!-- WORDSIZE -->
<g id="node19" class="node">
<title>WORDSIZE</title>
<ellipse fill="none" stroke="#000000" cx="471.2469" cy="-306" rx="60.8332" ry="18"/>
<text text-anchor="middle" x="471.2469" y="-301.8" font-family="Times,serif" font-size="14.00" fill="#000000">WORDSIZE</text>
</g>
<!-- WORDSIZE&#45;&gt;getWord() -->
<g id="edge27" class="edge">
<title>WORDSIZE-&gt;getWord()</title>
<path fill="none" stroke="#000000" d="M433.709,-291.7751C402.6046,-279.9882 358.336,-263.2127 325.5078,-250.7725"/>
<polygon fill="#000000" stroke="#000000" points="326.7356,-247.495 316.1442,-247.2242 324.2551,-254.0408 326.7356,-247.495"/>
</g>
<!-- abs() -->
<g id="node20" class="node">
<title>abs()</title>
<ellipse fill="none" stroke="#000000" cx="1177.2469" cy="-162" rx="30.1746" ry="18"/>
<text text-anchor="middle" x="1177.2469" y="-157.8" font-family="Times,serif" font-size="14.00" fill="#000000">abs()</text>
</g>
<!-- abs()&#45;&gt;doCommand() -->
<g id="edge28" class="edge">
<title>abs()-&gt;doCommand()</title>
<path fill="none" stroke="#000000" d="M1200.9909,-150.6332C1207.4276,-148.0128 1214.4882,-145.544 1221.2469,-144 1374.0387,-109.0947 1843.3684,-95.5667 2029.7675,-91.4814"/>
<polygon fill="#000000" stroke="#000000" points="2030.1099,-94.9749 2040.032,-91.2597 2029.9587,-87.9765 2030.1099,-94.9749"/>
</g>
<!-- atEOL()&#45;&gt;doCommand() -->
<g id="edge29" class="edge">
<title>atEOL()-&gt;doCommand()</title>
<path fill="none" stroke="#000000" d="M527.4382,-154.2821C548.1171,-150.5263 573.9637,-146.3291 597.2469,-144 879.4327,-115.7715 1762.124,-96.7054 2029.636,-91.4616"/>
<polygon fill="#000000" stroke="#000000" points="2029.7179,-94.9608 2039.6477,-91.2662 2029.5813,-87.9621 2029.7179,-94.9608"/>
</g>
<!-- ch -->
<g id="node22" class="node">
<title>ch</title>
<ellipse fill="none" stroke="#000000" cx="643.2469" cy="-378" rx="27" ry="18"/>
<text text-anchor="middle" x="643.2469" y="-373.8" font-family="Times,serif" font-size="14.00" fill="#000000">ch</text>
</g>
<!-- ch&#45;&gt;nonBlank() -->
<g id="edge31" class="edge">
<title>ch-&gt;nonBlank()</title>
<path fill="none" stroke="#000000" d="M643.2469,-359.8314C643.2469,-352.131 643.2469,-342.9743 643.2469,-334.4166"/>
<polygon fill="#000000" stroke="#000000" points="646.747,-334.4132 643.2469,-324.4133 639.747,-334.4133 646.747,-334.4132"/>
</g>
<!-- ch&#45;&gt;getNum() -->
<g id="edge32" class="edge">
<title>ch-&gt;getNum()</title>
<path fill="none" stroke="#000000" d="M668.6667,-371.7228C691.9037,-364.4868 724.9126,-350.087 740.2469,-324 748.3549,-310.2065 749.4331,-301.1001 740.2469,-288 734.0863,-279.2145 680.1084,-261.0852 638.8759,-248.2616"/>
<polygon fill="#000000" stroke="#000000" points="639.8237,-244.8912 629.2362,-245.2872 637.7598,-251.5801 639.8237,-244.8912"/>
</g>
<!-- ch&#45;&gt;getWord() -->
<g id="edge33" class="edge">
<title>ch-&gt;getWord()</title>
<path fill="none" stroke="#000000" d="M616.2166,-376.6401C569.7146,-373.3169 472.6925,-362.0129 401.2469,-324 380.7086,-313.0725 381.4768,-302.4536 363.2469,-288 348.3967,-276.226 330.979,-264.4937 316.0249,-254.9876"/>
<polygon fill="#000000" stroke="#000000" points="317.8735,-252.0156 307.5428,-249.6644 314.1524,-257.9447 317.8735,-252.0156"/>
</g>
<!-- ch&#45;&gt;skipCh() -->
<g id="edge34" class="edge">
<title>ch-&gt;skipCh()</title>
<path fill="none" stroke="#000000" d="M616.3248,-375.3997C511.3954,-365.2353 135.4131,-328.5266 131.2469,-324 116.2643,-307.7214 117.2398,-281.9266 121.1062,-262.1173"/>
<polygon fill="#000000" stroke="#000000" points="124.578,-262.6353 123.395,-252.1067 117.7541,-261.075 124.578,-262.6353"/>
</g>
<!-- getCh() -->
<g id="node23" class="node">
<title>getCh()</title>
<ellipse fill="none" stroke="#000000" cx="1047.2469" cy="-306" rx="40.5673" ry="18"/>
<text text-anchor="middle" x="1047.2469" y="-301.8" font-family="Times,serif" font-size="14.00" fill="#000000">getCh()</text>
</g>
<!-- ch&#45;&gt;getCh() -->
<g id="edge30" class="edge">
<title>ch-&gt;getCh()</title>
<path fill="none" stroke="#000000" d="M670.2444,-375.338C729.2476,-369.1909 873.8863,-352.3256 992.2469,-324 996.6531,-322.9455 1001.2135,-321.7041 1005.7371,-320.3742"/>
<polygon fill="#000000" stroke="#000000" points="1006.9835,-323.6525 1015.5072,-317.3598 1004.9197,-316.9636 1006.9835,-323.6525"/>
</g>
<!-- getCh()&#45;&gt;getNum() -->
<g id="edge50" class="edge">
<title>getCh()-&gt;getNum()</title>
<path fill="none" stroke="#000000" d="M1010.5328,-297.891C994.7891,-294.5694 976.1627,-290.8458 959.2469,-288 838.9937,-267.7691 807.6621,-271.2433 687.2469,-252 673.2338,-249.7606 658.1233,-247.0617 644.1306,-244.4431"/>
<polygon fill="#000000" stroke="#000000" points="644.6474,-240.9789 634.1709,-242.5583 643.3457,-247.8568 644.6474,-240.9789"/>
</g>
<!-- getCh()&#45;&gt;getWord() -->
<g id="edge51" class="edge">
<title>getCh()-&gt;getWord()</title>
<path fill="none" stroke="#000000" d="M1011.4744,-297.5013C995.5686,-294.029 976.5607,-290.2966 959.2469,-288 703.2157,-254.0385 635.6068,-283.3849 379.2469,-252 365.0157,-250.2577 349.727,-247.7568 335.5574,-245.1712"/>
<polygon fill="#000000" stroke="#000000" points="335.9418,-241.6824 325.4685,-243.2831 334.654,-248.563 335.9418,-241.6824"/>
</g>
<!-- getCh()&#45;&gt;skipCh() -->
<g id="edge52" class="edge">
<title>getCh()-&gt;skipCh()</title>
<path fill="none" stroke="#000000" d="M1011.4885,-297.3924C995.5853,-293.8999 976.5755,-290.1819 959.2469,-288 633.4295,-246.9759 547.2368,-291.6307 221.2469,-252 207.2063,-250.2931 192.096,-247.6707 178.2606,-244.9511"/>
<polygon fill="#000000" stroke="#000000" points="178.9405,-241.5178 168.445,-242.9653 177.5524,-248.3788 178.9405,-241.5178"/>
</g>
<!-- dMem -->
<g id="node24" class="node">
<title>dMem</title>
<ellipse fill="none" stroke="#000000" cx="1979.2469" cy="-234" rx="36.4975" ry="18"/>
<text text-anchor="middle" x="1979.2469" y="-229.8" font-family="Times,serif" font-size="14.00" fill="#000000">dMem</text>
</g>
<!-- dMem&#45;&gt;readInstructions() -->
<g id="edge35" class="edge">
<title>dMem-&gt;readInstructions()</title>
<path fill="none" stroke="#000000" d="M1951.9201,-221.8562C1945.8718,-219.5798 1939.4228,-217.4599 1933.2469,-216 1840.2295,-194.0116 1571.3166,-175.4892 1430.9226,-166.989"/>
<polygon fill="#000000" stroke="#000000" points="1430.8209,-163.4767 1420.6287,-166.3698 1430.4005,-170.464 1430.8209,-163.4767"/>
</g>
<!-- dMem&#45;&gt;stepTM() -->
<g id="edge36" class="edge">
<title>dMem-&gt;stepTM()</title>
<path fill="none" stroke="#000000" d="M2005.9016,-221.5872C2011.8232,-219.3276 2018.1538,-217.2825 2024.2469,-216 2099.4597,-200.169 3260.5888,-170.3039 3535.3043,-163.434"/>
<polygon fill="#000000" stroke="#000000" points="3535.5483,-166.929 3545.4578,-163.1804 3535.3735,-159.9312 3535.5483,-166.929"/>
</g>
<!-- dMem&#45;&gt;doCommand() -->
<g id="edge37" class="edge">
<title>dMem-&gt;doCommand()</title>
<path fill="none" stroke="#000000" d="M2000.1673,-219.2919C2013.8343,-209.1268 2031.6088,-194.8123 2045.2469,-180 2063.2494,-160.4475 2080.1139,-135.3459 2091.6957,-116.6221"/>
<polygon fill="#000000" stroke="#000000" points="2094.7361,-118.3583 2096.9388,-107.995 2088.7542,-114.7228 2094.7361,-118.3583"/>
</g>
<!-- dloc -->
<g id="node25" class="node">
<title>dloc</title>
<ellipse fill="none" stroke="#000000" cx="1747.2469" cy="-162" rx="27.8286" ry="18"/>
<text text-anchor="middle" x="1747.2469" y="-157.8" font-family="Times,serif" font-size="14.00" fill="#000000">dloc</text>
</g>
<!-- dloc&#45;&gt;doCommand() -->
<g id="edge38" class="edge">
<title>dloc-&gt;doCommand()</title>
<path fill="none" stroke="#000000" d="M1769.5543,-151.2803C1775.8154,-148.5924 1782.7027,-145.9283 1789.2469,-144 1871.2095,-119.849 1968.4405,-105.3037 2033.6201,-97.4932"/>
<polygon fill="#000000" stroke="#000000" points="2034.2755,-100.9404 2043.7986,-96.2971 2033.4584,-93.9882 2034.2755,-100.9404"/>
</g>
<!-- done -->
<g id="node26" class="node">
<title>done</title>
<ellipse fill="none" stroke="#000000" cx="2314.2469" cy="-90" rx="29.6185" ry="18"/>
<text text-anchor="middle" x="2314.2469" y="-85.8" font-family="Times,serif" font-size="14.00" fill="#000000">done</text>
</g>
<!-- done&#45;&gt;main() -->
<g id="edge40" class="edge">
<title>done-&gt;main()</title>
<path fill="none" stroke="#000000" d="M2337.5723,-78.7163C2342.6904,-76.3864 2348.1144,-74.0272 2353.2469,-72 2393.9533,-55.9224 2441.5791,-40.5255 2474.8001,-30.3162"/>
<polygon fill="#000000" stroke="#000000" points="2476.0805,-33.585 2484.6241,-27.3194 2474.0379,-26.8896 2476.0805,-33.585"/>
</g>
<!-- exit() -->
<g id="node27" class="node">
<title>exit()</title>
<ellipse fill="none" stroke="#000000" cx="2394.2469" cy="-90" rx="31.8973" ry="18"/>
<text text-anchor="middle" x="2394.2469" y="-85.8" font-family="Times,serif" font-size="14.00" fill="#000000">exit()</text>
</g>
<!-- exit()&#45;&gt;main() -->
<g id="edge42" class="edge">
<title>exit()-&gt;main()</title>
<path fill="none" stroke="#000000" d="M2416.3402,-76.9613C2435.2062,-65.8273 2462.5938,-49.6641 2483.9245,-37.0755"/>
<polygon fill="#000000" stroke="#000000" points="2485.8198,-40.0211 2492.6529,-31.9243 2482.2619,-33.9927 2485.8198,-40.0211"/>
</g>
<!-- feof() -->
<g id="node28" class="node">
<title>feof()</title>
<ellipse fill="none" stroke="#000000" cx="974.2469" cy="-234" rx="33.0218" ry="18"/>
<text text-anchor="middle" x="974.2469" y="-229.8" font-family="Times,serif" font-size="14.00" fill="#000000">feof()</text>
</g>
<!-- feof()&#45;&gt;readInstructions() -->
<g id="edge43" class="edge">
<title>feof()-&gt;readInstructions()</title>
<path fill="none" stroke="#000000" d="M1000.2763,-222.9214C1007.0153,-220.3618 1014.325,-217.8501 1021.2469,-216 1120.3566,-189.51 1148.1878,-197.6494 1249.2469,-180 1257.0436,-178.6384 1265.1932,-177.1603 1273.2944,-175.6562"/>
<polygon fill="#000000" stroke="#000000" points="1273.9406,-179.0961 1283.1252,-173.8147 1272.6518,-172.2158 1273.9406,-179.0961"/>
</g>
<!-- fflush() -->
<g id="node29" class="node">
<title>fflush()</title>
<ellipse fill="none" stroke="#000000" cx="5368.2469" cy="-234" rx="39.9838" ry="18"/>
<text text-anchor="middle" x="5368.2469" y="-229.8" font-family="Times,serif" font-size="14.00" fill="#000000">fflush()</text>
</g>
<!-- fflush()&#45;&gt;stepTM() -->
<g id="edge44" class="edge">
<title>fflush()-&gt;stepTM()</title>
<path fill="none" stroke="#000000" d="M5339.1456,-221.5796C5332.7024,-219.3205 5325.8306,-217.2775 5319.2469,-216 5152.8028,-183.7029 3932.7712,-166.319 3651.1398,-162.7112"/>
<polygon fill="#000000" stroke="#000000" points="3650.7892,-159.2066 3640.7454,-162.5789 3650.7,-166.206 3650.7892,-159.2066"/>
</g>
<!-- fflush()&#45;&gt;doCommand() -->
<g id="edge45" class="edge">
<title>fflush()-&gt;doCommand()</title>
<path fill="none" stroke="#000000" d="M5338.848,-221.6657C5332.483,-219.431 5325.7181,-217.376 5319.2469,-216 4851.7385,-116.5874 4723.7822,-164.1758 4246.2469,-144 3788.1414,-124.6451 2638.1835,-165.1664 2183.2469,-108 2177.3,-107.2527 2171.1409,-106.2268 2165.0201,-105.0409"/>
<polygon fill="#000000" stroke="#000000" points="2165.3031,-101.5249 2154.7998,-102.9147 2163.8773,-108.3781 2165.3031,-101.5249"/>
</g>
<!-- fgets() -->
<g id="node30" class="node">
<title>fgets()</title>
<ellipse fill="none" stroke="#000000" cx="2069.2469" cy="-234" rx="36.4722" ry="18"/>
<text text-anchor="middle" x="2069.2469" y="-229.8" font-family="Times,serif" font-size="14.00" fill="#000000">fgets()</text>
</g>
<!-- fgets()&#45;&gt;readInstructions() -->
<g id="edge46" class="edge">
<title>fgets()-&gt;readInstructions()</title>
<path fill="none" stroke="#000000" d="M2042.5465,-221.7933C2036.6277,-219.5208 2030.3098,-217.4184 2024.2469,-216 1914.071,-190.2242 1589.8041,-172.8728 1431.8018,-165.7072"/>
<polygon fill="#000000" stroke="#000000" points="1431.7861,-162.2031 1421.6389,-165.25 1431.4714,-169.196 1431.7861,-162.2031"/>
</g>
<!-- fgets()&#45;&gt;stepTM() -->
<g id="edge47" class="edge">
<title>fgets()-&gt;stepTM()</title>
<path fill="none" stroke="#000000" d="M2095.9036,-221.5969C2101.8252,-219.3366 2108.1552,-217.2889 2114.2469,-216 2254.8756,-186.2464 3279.7207,-167.2488 3535.5194,-162.9373"/>
<polygon fill="#000000" stroke="#000000" points="3535.769,-166.4337 3545.7088,-162.7664 3535.6516,-159.4347 3535.769,-166.4337"/>
</g>
<!-- fgets()&#45;&gt;doCommand() -->
<g id="edge48" class="edge">
<title>fgets()-&gt;doCommand()</title>
<path fill="none" stroke="#000000" d="M2073.9828,-216.0535C2080.4682,-191.4774 2092.1787,-147.1008 2099.8323,-118.0974"/>
<polygon fill="#000000" stroke="#000000" points="2103.2839,-118.7348 2102.4514,-108.1727 2096.5156,-116.9487 2103.2839,-118.7348"/>
</g>
<!-- fopen() -->
<g id="node31" class="node">
<title>fopen()</title>
<ellipse fill="none" stroke="#000000" cx="2483.2469" cy="-90" rx="39.4061" ry="18"/>
<text text-anchor="middle" x="2483.2469" y="-85.8" font-family="Times,serif" font-size="14.00" fill="#000000">fopen()</text>
</g>
<!-- fopen()&#45;&gt;main() -->
<g id="edge49" class="edge">
<title>fopen()-&gt;main()</title>
<path fill="none" stroke="#000000" d="M2491.4042,-72.2022C2495.2006,-63.9192 2499.7967,-53.8915 2503.9981,-44.7248"/>
<polygon fill="#000000" stroke="#000000" points="2507.1986,-46.142 2508.1835,-35.593 2500.8351,-43.2254 2507.1986,-46.142"/>
</g>
<!-- iMem -->
<g id="node32" class="node">
<title>iMem</title>
<ellipse fill="none" stroke="#000000" cx="2857.2469" cy="-234" rx="34.2065" ry="18"/>
<text text-anchor="middle" x="2857.2469" y="-229.8" font-family="Times,serif" font-size="14.00" fill="#000000">iMem</text>
</g>
<!-- iMem&#45;&gt;readInstructions() -->
<g id="edge59" class="edge">
<title>iMem-&gt;readInstructions()</title>
<path fill="none" stroke="#000000" d="M2824.7265,-228.2894C2799.7805,-224.1497 2764.446,-218.805 2733.2469,-216 2280.1265,-175.2616 2164.7921,-199.1438 1710.2469,-180 1614.8297,-175.9814 1505.502,-170.5071 1431.1652,-166.654"/>
<polygon fill="#000000" stroke="#000000" points="1431.0815,-163.1451 1420.9133,-166.1214 1430.7182,-170.1356 1431.0815,-163.1451"/>
</g>
<!-- iMem&#45;&gt;stepTM() -->
<g id="edge60" class="edge">
<title>iMem-&gt;stepTM()</title>
<path fill="none" stroke="#000000" d="M2883.7536,-222.5503C2890.6374,-219.9977 2898.1225,-217.5823 2905.2469,-216 3024.9159,-189.4219 3392.8599,-170.8309 3535.7099,-164.44"/>
<polygon fill="#000000" stroke="#000000" points="3536.169,-167.9231 3546.004,-163.9831 3535.8587,-160.93 3536.169,-167.9231"/>
</g>
<!-- iMem&#45;&gt;writeInstruction() -->
<g id="edge58" class="edge">
<title>iMem-&gt;writeInstruction()</title>
<path fill="none" stroke="#000000" d="M2829.3749,-223.4001C2822.7878,-220.9361 2815.7798,-218.3479 2809.2469,-216 2775.1022,-203.7285 2736.5771,-190.469 2706.2347,-180.1602"/>
<polygon fill="#000000" stroke="#000000" points="2707.2811,-176.8193 2696.6867,-176.9218 2705.0326,-183.4484 2707.2811,-176.8193"/>
</g>
<!-- icountflag -->
<g id="node33" class="node">
<title>icountflag</title>
<ellipse fill="none" stroke="#000000" cx="1881.2469" cy="-162" rx="50.38" ry="18"/>
<text text-anchor="middle" x="1881.2469" y="-157.8" font-family="Times,serif" font-size="14.00" fill="#000000">icountflag</text>
</g>
<!-- icountflag&#45;&gt;doCommand() -->
<g id="edge61" class="edge">
<title>icountflag-&gt;doCommand()</title>
<path fill="none" stroke="#000000" d="M1918.8199,-150.0298C1955.7716,-138.2576 2012.527,-120.1762 2054.0951,-106.9333"/>
<polygon fill="#000000" stroke="#000000" points="2055.3159,-110.2178 2063.7816,-103.8474 2053.191,-103.5481 2055.3159,-110.2178"/>
</g>
<!-- iloc -->
<g id="node34" class="node">
<title>iloc</title>
<ellipse fill="none" stroke="#000000" cx="1976.2469" cy="-162" rx="27" ry="18"/>
<text text-anchor="middle" x="1976.2469" y="-157.8" font-family="Times,serif" font-size="14.00" fill="#000000">iloc</text>
</g>
<!-- iloc&#45;&gt;doCommand() -->
<g id="edge62" class="edge">
<title>iloc-&gt;doCommand()</title>
<path fill="none" stroke="#000000" d="M1997.2943,-150.432C2016.4493,-139.904 2045.2077,-124.0979 2068.5091,-111.291"/>
<polygon fill="#000000" stroke="#000000" points="2070.3869,-114.2528 2077.4647,-106.3689 2067.0153,-108.1183 2070.3869,-114.2528"/>
</g>
<!-- inCol -->
<g id="node35" class="node">
<title>inCol</title>
<ellipse fill="none" stroke="#000000" cx="1174.2469" cy="-378" rx="32.502" ry="18"/>
<text text-anchor="middle" x="1174.2469" y="-373.8" font-family="Times,serif" font-size="14.00" fill="#000000">inCol</text>
</g>
<!-- inCol&#45;&gt;readInstructions() -->
<g id="edge65" class="edge">
<title>inCol-&gt;readInstructions()</title>
<path fill="none" stroke="#000000" d="M1181.9508,-360.4755C1196.3171,-329.095 1229.5537,-262.2711 1271.2469,-216 1281.6998,-204.3994 1294.9641,-193.6267 1307.2517,-184.8033"/>
<polygon fill="#000000" stroke="#000000" points="1309.3501,-187.6072 1315.556,-179.0201 1305.3496,-181.8629 1309.3501,-187.6072"/>
</g>
<!-- inCol&#45;&gt;stepTM() -->
<g id="edge66" class="edge">
<title>inCol-&gt;stepTM()</title>
<path fill="none" stroke="#000000" d="M1198.6012,-365.7144C1204.2598,-363.3851 1210.355,-361.2791 1216.2469,-360 1388.8279,-322.5346 2628.7981,-331.3252 2805.2469,-324 3070.3902,-312.9927 3815.3456,-445.2202 3997.2469,-252 4008.2143,-240.3502 4007.9679,-227.8769 3997.2469,-216 3944.7078,-157.7966 3722.8541,-196.7133 3646.2469,-180 3643.2117,-179.3378 3640.1081,-178.5603 3637.0004,-177.7066"/>
<polygon fill="#000000" stroke="#000000" points="3637.7231,-174.2699 3627.14,-174.7685 3635.7241,-180.9785 3637.7231,-174.2699"/>
</g>
<!-- inCol&#45;&gt;doCommand() -->
<g id="edge67" class="edge">
<title>inCol-&gt;doCommand()</title>
<path fill="none" stroke="#000000" d="M1198.5915,-365.6694C1204.2506,-363.3424 1210.3485,-361.2487 1216.2469,-360 1374.6921,-326.457 3969.3581,-328.6916 4131.2469,-324 4153.1772,-323.3644 5694.0911,-267.8632 5709.2469,-252 5763.8172,-194.8831 5690.6015,-176.6619 5509.2469,-144 5145.5215,-78.4932 2550.0911,-152.863 2183.2469,-108 2177.0641,-107.2439 2170.653,-106.1795 2164.2947,-104.9419"/>
<polygon fill="#000000" stroke="#000000" points="2164.891,-101.491 2154.3868,-102.8738 2163.4607,-108.3433 2164.891,-101.491"/>
</g>
<!-- inCol&#45;&gt;nonBlank() -->
<g id="edge64" class="edge">
<title>inCol-&gt;nonBlank()</title>
<path fill="none" stroke="#000000" d="M1142.6207,-373.7117C1056.6657,-362.0568 817.6373,-329.6461 704.3296,-314.2824"/>
<polygon fill="#000000" stroke="#000000" points="704.4734,-310.7699 694.0937,-312.8945 703.5328,-317.7065 704.4734,-310.7699"/>
</g>
<!-- inCol&#45;&gt;getCh() -->
<g id="edge63" class="edge">
<title>inCol-&gt;getCh()</title>
<path fill="none" stroke="#000000" d="M1151.2482,-364.9613C1131.6469,-353.8488 1103.2092,-337.7266 1081.0229,-325.1486"/>
<polygon fill="#000000" stroke="#000000" points="1082.6735,-322.061 1072.248,-320.1739 1079.2211,-328.1505 1082.6735,-322.061"/>
</g>
<!-- in_Line -->
<g id="node36" class="node">
<title>in_Line</title>
<ellipse fill="none" stroke="#000000" cx="1266.2469" cy="-378" rx="41.1509" ry="18"/>
<text text-anchor="middle" x="1266.2469" y="-373.8" font-family="Times,serif" font-size="14.00" fill="#000000">in_Line</text>
</g>
<!-- in_Line&#45;&gt;readInstructions() -->
<g id="edge70" class="edge">
<title>in_Line-&gt;readInstructions()</title>
<path fill="none" stroke="#000000" d="M1265.2022,-359.8948C1264.1657,-328.7494 1265.384,-263.7774 1289.2469,-216 1294.8471,-204.7876 1303.6746,-194.4926 1312.5823,-185.9665"/>
<polygon fill="#000000" stroke="#000000" points="1314.9493,-188.5448 1320.0146,-179.2392 1310.2518,-183.355 1314.9493,-188.5448"/>
</g>
<!-- in_Line&#45;&gt;stepTM() -->
<g id="edge71" class="edge">
<title>in_Line-&gt;stepTM()</title>
<path fill="none" stroke="#000000" d="M1307.6509,-377.5219C1615.0534,-373.9272 3546.3725,-350.5487 4131.2469,-324 4353.8152,-313.8972 4979.4676,-415.1004 5131.2469,-252 5142.1468,-240.2871 5142.4227,-227.45 5131.2469,-216 5073.6049,-156.9437 3727.4989,-194.4347 3646.2469,-180 3642.9939,-179.4221 3639.6701,-178.6802 3636.3516,-177.828"/>
<polygon fill="#000000" stroke="#000000" points="3637.0664,-174.3919 3626.4887,-174.9946 3635.1336,-181.1197 3637.0664,-174.3919"/>
</g>
<!-- in_Line&#45;&gt;doCommand() -->
<g id="edge72" class="edge">
<title>in_Line-&gt;doCommand()</title>
<path fill="none" stroke="#000000" d="M1307.3849,-377.4548C1667.1642,-372.671 4273.6451,-337.6992 4620.2469,-324 4874.5518,-313.9487 5589.0345,-437.5317 5763.2469,-252 5796.1038,-217.0082 5797.017,-178.1113 5763.2469,-144 5728.2635,-108.663 2232.6063,-114.0171 2183.2469,-108 2177.0638,-107.2463 2170.6526,-106.1834 2164.2941,-104.9467"/>
<polygon fill="#000000" stroke="#000000" points="2164.8902,-101.4958 2154.3861,-102.8796 2163.4605,-108.3482 2164.8902,-101.4958"/>
</g>
<!-- in_Line&#45;&gt;nonBlank() -->
<g id="edge69" class="edge">
<title>in_Line-&gt;nonBlank()</title>
<path fill="none" stroke="#000000" d="M1235.9469,-365.6594C1229.5325,-363.4541 1222.7377,-361.4123 1216.2469,-360 1027.5538,-318.9418 975.2835,-344.3179 783.2469,-324 757.339,-321.2589 728.8049,-317.6902 704.2939,-314.454"/>
<polygon fill="#000000" stroke="#000000" points="704.4294,-310.9412 694.0549,-313.0907 703.5055,-317.88 704.4294,-310.9412"/>
</g>
<!-- in_Line&#45;&gt;getCh() -->
<g id="edge68" class="edge">
<title>in_Line-&gt;getCh()</title>
<path fill="none" stroke="#000000" d="M1234.5673,-366.3996C1228.4997,-364.2333 1222.1873,-362.0176 1216.2469,-360 1173.6421,-345.5298 1124.6314,-329.9906 1090.3983,-319.3141"/>
<polygon fill="#000000" stroke="#000000" points="1091.3013,-315.9296 1080.7129,-316.3002 1089.2214,-322.6135 1091.3013,-315.9296"/>
</g>
<!-- isalnum() -->
<g id="node37" class="node">
<title>isalnum()</title>
<ellipse fill="none" stroke="#000000" cx="306.2469" cy="-306" rx="48.0897" ry="18"/>
<text text-anchor="middle" x="306.2469" y="-301.8" font-family="Times,serif" font-size="14.00" fill="#000000">isalnum()</text>
</g>
<!-- isalnum()&#45;&gt;getWord() -->
<g id="edge73" class="edge">
<title>isalnum()-&gt;getWord()</title>
<path fill="none" stroke="#000000" d="M299.9384,-287.8314C297.1638,-279.8406 293.8448,-270.2819 290.7787,-261.4514"/>
<polygon fill="#000000" stroke="#000000" points="294.0534,-260.2121 287.4669,-251.9134 287.4407,-262.5082 294.0534,-260.2121"/>
</g>
<!-- isdigit() -->
<g id="node38" class="node">
<title>isdigit()</title>
<ellipse fill="none" stroke="#000000" cx="834.2469" cy="-306" rx="41.7269" ry="18"/>
<text text-anchor="middle" x="834.2469" y="-301.8" font-family="Times,serif" font-size="14.00" fill="#000000">isdigit()</text>
</g>
<!-- isdigit()&#45;&gt;getNum() -->
<g id="edge74" class="edge">
<title>isdigit()-&gt;getNum()</title>
<path fill="none" stroke="#000000" d="M800.8366,-295.0808C793.4127,-292.7048 785.5728,-290.2346 778.2469,-288 764.8764,-283.9217 690.6646,-262.5551 639.8486,-247.9532"/>
<polygon fill="#000000" stroke="#000000" points="640.6,-244.5275 630.0223,-245.1301 638.667,-251.2554 640.6,-244.5275"/>
</g>
<!-- lineLen -->
<g id="node39" class="node">
<title>lineLen</title>
<ellipse fill="none" stroke="#000000" cx="2683.2469" cy="-378" rx="40.5673" ry="18"/>
<text text-anchor="middle" x="2683.2469" y="-373.8" font-family="Times,serif" font-size="14.00" fill="#000000">lineLen</text>
</g>
<!-- lineLen&#45;&gt;readInstructions() -->
<g id="edge77" class="edge">
<title>lineLen-&gt;readInstructions()</title>
<path fill="none" stroke="#000000" d="M2683.2615,-359.9989C2682.1711,-324.5702 2673.9601,-246.5843 2624.2469,-216 2580.9648,-189.3722 1761.0145,-182.2447 1710.2469,-180 1614.8383,-175.7814 1505.5092,-170.3411 1431.1697,-166.5506"/>
<polygon fill="#000000" stroke="#000000" points="1431.0829,-163.0417 1420.9174,-166.027 1430.7258,-170.0326 1431.0829,-163.0417"/>
</g>
<!-- lineLen&#45;&gt;stepTM() -->
<g id="edge78" class="edge">
<title>lineLen-&gt;stepTM()</title>
<path fill="none" stroke="#000000" d="M2723.9675,-377.8987C3042.2294,-377.0131 5119.733,-369.4934 5164.2469,-324 5197.8167,-289.6916 5197.7833,-250.3411 5164.2469,-216 5105.3088,-155.6476 3729.3074,-194.7334 3646.2469,-180 3642.9937,-179.4229 3639.6698,-178.6817 3636.3513,-177.83"/>
<polygon fill="#000000" stroke="#000000" points="3637.0659,-174.3938 3626.4882,-174.9974 3635.1336,-181.1218 3637.0659,-174.3938"/>
</g>
<!-- lineLen&#45;&gt;doCommand() -->
<g id="edge79" class="edge">
<title>lineLen-&gt;doCommand()</title>
<path fill="none" stroke="#000000" d="M2723.9143,-377.6946C3090.3749,-374.8972 5810.5847,-353.1568 5839.2469,-324 5872.8965,-289.7698 5850.7877,-262.592 5839.2469,-216 5830.5473,-180.8781 5832.1401,-162.8373 5801.2469,-144 5715.4362,-91.6764 2283.014,-120.1567 2183.2469,-108 2177.0638,-107.2466 2170.6525,-106.1839 2164.294,-104.9473"/>
<polygon fill="#000000" stroke="#000000" points="2164.8901,-101.4964 2154.386,-102.8803 2163.4605,-108.3489 2164.8901,-101.4964"/>
</g>
<!-- lineLen&#45;&gt;nonBlank() -->
<g id="edge76" class="edge">
<title>lineLen-&gt;nonBlank()</title>
<path fill="none" stroke="#000000" d="M2642.519,-377.395C2401.8022,-373.7359 1162.8161,-353.7207 783.2469,-324 756.9432,-321.9404 728.0015,-318.4294 703.2933,-315.0521"/>
<polygon fill="#000000" stroke="#000000" points="703.7264,-311.5787 693.3396,-313.6679 702.7622,-318.512 703.7264,-311.5787"/>
</g>
<!-- lineLen&#45;&gt;getCh() -->
<g id="edge75" class="edge">
<title>lineLen-&gt;getCh()</title>
<path fill="none" stroke="#000000" d="M2642.8063,-376.2202C2420.1527,-366.4213 1344.79,-319.0948 1097.8611,-308.2275"/>
<polygon fill="#000000" stroke="#000000" points="1097.8828,-304.7252 1087.7385,-307.782 1097.5749,-311.7184 1097.8828,-304.7252"/>
</g>
<!-- num -->
<g id="node40" class="node">
<title>num</title>
<ellipse fill="none" stroke="#000000" cx="922.2469" cy="-306" rx="28.4127" ry="18"/>
<text text-anchor="middle" x="922.2469" y="-301.8" font-family="Times,serif" font-size="14.00" fill="#000000">num</text>
</g>
<!-- num&#45;&gt;readInstructions() -->
<g id="edge86" class="edge">
<title>num-&gt;readInstructions()</title>
<path fill="none" stroke="#000000" d="M944.5674,-294.6099C964.0465,-284.3378 992.7864,-268.3701 1016.2469,-252 1036.6873,-237.7373 1036.7191,-226.6645 1059.2469,-216 1136.9291,-179.2257 1164.8181,-196.0821 1249.2469,-180 1256.7642,-178.5681 1264.619,-177.0688 1272.4466,-175.5728"/>
<polygon fill="#000000" stroke="#000000" points="1273.1549,-179.0009 1282.3195,-173.6849 1271.8401,-172.1254 1273.1549,-179.0009"/>
</g>
<!-- num&#45;&gt;stepTM() -->
<g id="edge87" class="edge">
<title>num-&gt;stepTM()</title>
<path fill="none" stroke="#000000" d="M943.3251,-293.9334C947.2396,-291.8562 951.3302,-289.7918 955.2469,-288 996.6846,-269.043 1012.1549,-275.415 1051.2469,-252 1072.0503,-239.5394 1069.6476,-224.7933 1092.2469,-216 1095.9279,-214.5678 3161.5,-171.077 3535.5348,-163.2128"/>
<polygon fill="#000000" stroke="#000000" points="3535.6702,-166.7108 3545.5944,-163.0013 3535.523,-159.7124 3535.6702,-166.7108"/>
</g>
<!-- num&#45;&gt;doCommand() -->
<g id="edge88" class="edge">
<title>num-&gt;doCommand()</title>
<path fill="none" stroke="#000000" d="M900.7462,-294.3221C895.7637,-291.9613 890.4066,-289.6888 885.2469,-288 800.2417,-260.1773 744.5571,-320.6698 687.2469,-252 676.995,-239.716 676.8632,-228.1729 687.2469,-216 774.9064,-113.2361 1745.6465,-94.1111 2029.6419,-90.7069"/>
<polygon fill="#000000" stroke="#000000" points="2029.8946,-94.2043 2039.853,-90.5878 2029.8129,-87.2048 2029.8946,-94.2043"/>
</g>
<!-- num&#45;&gt;getNum() -->
<g id="edge85" class="edge">
<title>num-&gt;getNum()</title>
<path fill="none" stroke="#000000" d="M900.7773,-294.2252C895.7931,-291.8695 890.4275,-289.6235 885.2469,-288 786.0958,-256.9277 755.7283,-274.3152 654.2469,-252 649.1694,-250.8835 643.8969,-249.5919 638.6609,-248.2234"/>
<polygon fill="#000000" stroke="#000000" points="639.2649,-244.7609 628.6975,-245.5226 637.4335,-251.5171 639.2649,-244.7609"/>
</g>
<!-- opADD -->
<g id="node41" class="node">
<title>opADD</title>
<ellipse fill="none" stroke="#000000" cx="4448.2469" cy="-234" rx="41.7153" ry="18"/>
<text text-anchor="middle" x="4448.2469" y="-229.8" font-family="Times,serif" font-size="14.00" fill="#000000">opADD</text>
</g>
<!-- opADD&#45;&gt;stepTM() -->
<g id="edge89" class="edge">
<title>opADD-&gt;stepTM()</title>
<path fill="none" stroke="#000000" d="M4417.6144,-221.6765C4410.9919,-219.441 4403.9602,-217.3831 4397.2469,-216 4254.288,-186.5475 3810.2013,-169.2312 3650.8749,-163.8348"/>
<polygon fill="#000000" stroke="#000000" points="3650.9102,-160.3341 3640.7983,-163.4966 3650.6753,-167.3302 3650.9102,-160.3341"/>
</g>
<!-- opClass() -->
<g id="node42" class="node">
<title>opClass()</title>
<ellipse fill="none" stroke="#000000" cx="2567.2469" cy="-234" rx="48.0897" ry="18"/>
<text text-anchor="middle" x="2567.2469" y="-229.8" font-family="Times,serif" font-size="14.00" fill="#000000">opClass()</text>
</g>
<!-- opClass()&#45;&gt;readInstructions() -->
<g id="edge91" class="edge">
<title>opClass()-&gt;readInstructions()</title>
<path fill="none" stroke="#000000" d="M2522.7181,-227.01C2496.9361,-223.2046 2463.8298,-218.729 2434.2469,-216 2428.0158,-215.4252 1689.6528,-179.0524 1431.294,-166.3335"/>
<polygon fill="#000000" stroke="#000000" points="1431.3591,-162.8325 1421.1991,-165.8365 1431.0149,-169.8241 1431.3591,-162.8325"/>
</g>
<!-- opClass()&#45;&gt;stepTM() -->
<g id="edge92" class="edge">
<title>opClass()-&gt;stepTM()</title>
<path fill="none" stroke="#000000" d="M2614.5949,-230.4996C2664.3128,-226.8357 2744.7693,-220.9396 2814.2469,-216 3084.4806,-196.7872 3407.5104,-174.6645 3536.2385,-165.8825"/>
<polygon fill="#000000" stroke="#000000" points="3536.5259,-169.3711 3546.2645,-165.1986 3536.0495,-162.3873 3536.5259,-169.3711"/>
</g>
<!-- opClass()&#45;&gt;writeInstruction() -->
<g id="edge90" class="edge">
<title>opClass()-&gt;writeInstruction()</title>
<path fill="none" stroke="#000000" d="M2586.9613,-217.3008C2597.9039,-208.0317 2611.7078,-196.339 2623.801,-186.0954"/>
<polygon fill="#000000" stroke="#000000" points="2626.0853,-188.7473 2631.4536,-179.6132 2621.5609,-183.406 2626.0853,-188.7473"/>
</g>
<!-- opCodeTab -->
<g id="node43" class="node">
<title>opCodeTab</title>
<ellipse fill="none" stroke="#000000" cx="1473.2469" cy="-234" rx="56.184" ry="18"/>
<text text-anchor="middle" x="1473.2469" y="-229.8" font-family="Times,serif" font-size="14.00" fill="#000000">opCodeTab</text>
</g>
<!-- opCodeTab&#45;&gt;readInstructions() -->
<g id="edge94" class="edge">
<title>opCodeTab-&gt;readInstructions()</title>
<path fill="none" stroke="#000000" d="M1445.0389,-218.3771C1426.7771,-208.2629 1402.7382,-194.949 1382.6069,-183.7994"/>
<polygon fill="#000000" stroke="#000000" points="1384.1109,-180.6314 1373.6672,-178.8481 1380.7193,-186.755 1384.1109,-180.6314"/>
</g>
<!-- opCodeTab&#45;&gt;writeInstruction() -->
<g id="edge93" class="edge">
<title>opCodeTab-&gt;writeInstruction()</title>
<path fill="none" stroke="#000000" d="M1513.7715,-221.3699C1522.1208,-219.2151 1530.91,-217.2665 1539.2469,-216 1987.7169,-147.8691 2108.5362,-231.2541 2559.2469,-180 2567.5855,-179.0517 2576.2952,-177.7663 2584.8966,-176.3157"/>
<polygon fill="#000000" stroke="#000000" points="2585.6762,-179.7323 2594.9156,-174.5474 2584.4594,-172.8389 2585.6762,-179.7323"/>
</g>
<!-- opDIV -->
<g id="node44" class="node">
<title>opDIV</title>
<ellipse fill="none" stroke="#000000" cx="4545.2469" cy="-234" rx="37.7025" ry="18"/>
<text text-anchor="middle" x="4545.2469" y="-229.8" font-family="Times,serif" font-size="14.00" fill="#000000">opDIV</text>
</g>
<!-- opDIV&#45;&gt;stepTM() -->
<g id="edge95" class="edge">
<title>opDIV-&gt;stepTM()</title>
<path fill="none" stroke="#000000" d="M4517.4626,-221.524C4511.5548,-219.3284 4505.2776,-217.3249 4499.2469,-216 4336.4562,-180.2356 3824.0085,-166.7044 3650.9733,-163.0838"/>
<polygon fill="#000000" stroke="#000000" points="3650.8696,-159.5811 3640.7996,-162.8743 3650.7254,-166.5796 3650.8696,-159.5811"/>
</g>
<!-- opHALT -->
<g id="node45" class="node">
<title>opHALT</title>
<ellipse fill="none" stroke="#000000" cx="1594.2469" cy="-234" rx="46.3701" ry="18"/>
<text text-anchor="middle" x="1594.2469" y="-229.8" font-family="Times,serif" font-size="14.00" fill="#000000">opHALT</text>
</g>
<!-- opHALT&#45;&gt;readInstructions() -->
<g id="edge96" class="edge">
<title>opHALT-&gt;readInstructions()</title>
<path fill="none" stroke="#000000" d="M1558.7656,-222.3543C1551.9699,-220.1922 1544.9001,-217.9896 1538.2469,-216 1493.9128,-202.7423 1443.5728,-188.8306 1405.1463,-178.4482"/>
<polygon fill="#000000" stroke="#000000" points="1405.7093,-174.9751 1395.143,-175.7524 1403.8877,-181.734 1405.7093,-174.9751"/>
</g>
<!-- opHALT&#45;&gt;stepTM() -->
<g id="edge97" class="edge">
<title>opHALT-&gt;stepTM()</title>
<path fill="none" stroke="#000000" d="M1627.5968,-221.3897C1634.6512,-219.2039 1642.1199,-217.2383 1649.2469,-216 1744.3741,-199.4721 3222.0065,-169.359 3535.1984,-163.1414"/>
<polygon fill="#000000" stroke="#000000" points="3535.4871,-166.6364 3545.4157,-162.9388 3535.3483,-159.6378 3535.4871,-166.6364"/>
</g>
<!-- opIN -->
<g id="node46" class="node">
<title>opIN</title>
<ellipse fill="none" stroke="#000000" cx="4632.2469" cy="-234" rx="30.7597" ry="18"/>
<text text-anchor="middle" x="4632.2469" y="-229.8" font-family="Times,serif" font-size="14.00" fill="#000000">opIN</text>
</g>
<!-- opIN&#45;&gt;stepTM() -->
<g id="edge98" class="edge">
<title>opIN-&gt;stepTM()</title>
<path fill="none" stroke="#000000" d="M4609.0709,-221.8446C4603.6808,-219.5086 4597.8707,-217.3669 4592.2469,-216 4411.7969,-172.1415 3835.8008,-163.8758 3650.9438,-162.3428"/>
<polygon fill="#000000" stroke="#000000" points="3650.9116,-158.8425 3640.8841,-162.2629 3650.856,-165.8423 3650.9116,-158.8425"/>
</g>
<!-- opJEQ -->
<g id="node47" class="node">
<title>opJEQ</title>
<ellipse fill="none" stroke="#000000" cx="4718.2469" cy="-234" rx="37.1405" ry="18"/>
<text text-anchor="middle" x="4718.2469" y="-229.8" font-family="Times,serif" font-size="14.00" fill="#000000">opJEQ</text>
</g>
<!-- opJEQ&#45;&gt;stepTM() -->
<g id="edge99" class="edge">
<title>opJEQ-&gt;stepTM()</title>
<path fill="none" stroke="#000000" d="M4690.9638,-221.6626C4684.9128,-219.3982 4678.4516,-217.3322 4672.2469,-216 4474.636,-173.5715 3845.0141,-164.3093 3650.8315,-162.441"/>
<polygon fill="#000000" stroke="#000000" points="3650.8637,-158.9412 3640.8314,-162.3477 3650.7983,-165.9409 3650.8637,-158.9412"/>
</g>
<!-- opJGE -->
<g id="node48" class="node">
<title>opJGE</title>
<ellipse fill="none" stroke="#000000" cx="4811.2469" cy="-234" rx="37.1405" ry="18"/>
<text text-anchor="middle" x="4811.2469" y="-229.8" font-family="Times,serif" font-size="14.00" fill="#000000">opJGE</text>
</g>
<!-- opJGE&#45;&gt;stepTM() -->
<g id="edge100" class="edge">
<title>opJGE-&gt;stepTM()</title>
<path fill="none" stroke="#000000" d="M4783.6055,-221.739C4777.3519,-219.4396 4770.6617,-217.3399 4764.2469,-216 4547.9985,-170.8311 3856.3621,-163.437 3651.164,-162.2328"/>
<polygon fill="#000000" stroke="#000000" points="3650.9264,-158.7315 3640.9069,-162.1754 3650.8872,-165.7314 3650.9264,-158.7315"/>
</g>
<!-- opJGT -->
<g id="node49" class="node">
<title>opJGT</title>
<ellipse fill="none" stroke="#000000" cx="4904.2469" cy="-234" rx="37.1405" ry="18"/>
<text text-anchor="middle" x="4904.2469" y="-229.8" font-family="Times,serif" font-size="14.00" fill="#000000">opJGT</text>
</g>
<!-- opJGT&#45;&gt;stepTM() -->
<g id="edge101" class="edge">
<title>opJGT-&gt;stepTM()</title>
<path fill="none" stroke="#000000" d="M4876.6089,-221.7227C4870.3551,-219.4243 4863.664,-217.329 4857.2469,-216 4738.4266,-191.3913 3882.9171,-169.031 3651.07,-163.3736"/>
<polygon fill="#000000" stroke="#000000" points="3650.909,-159.8688 3640.8269,-163.1247 3650.7389,-166.8667 3650.909,-159.8688"/>
</g>
<!-- opJLE -->
<g id="node50" class="node">
<title>opJLE</title>
<ellipse fill="none" stroke="#000000" cx="4996.2469" cy="-234" rx="36.4975" ry="18"/>
<text text-anchor="middle" x="4996.2469" y="-229.8" font-family="Times,serif" font-size="14.00" fill="#000000">opJLE</text>
</g>
<!-- opJLE&#45;&gt;stepTM() -->
<g id="edge102" class="edge">
<title>opJLE-&gt;stepTM()</title>
<path fill="none" stroke="#000000" d="M4969.4638,-221.7982C4963.272,-219.4646 4956.6262,-217.3356 4950.2469,-216 4821.9907,-189.1481 3893.1798,-168.2107 3650.913,-163.1646"/>
<polygon fill="#000000" stroke="#000000" points="3650.9733,-159.6652 3640.9029,-162.957 3650.8281,-166.6637 3650.9733,-159.6652"/>
</g>
<!-- opJLT -->
<g id="node51" class="node">
<title>opJLT</title>
<ellipse fill="none" stroke="#000000" cx="5086.2469" cy="-234" rx="36.4975" ry="18"/>
<text text-anchor="middle" x="5086.2469" y="-229.8" font-family="Times,serif" font-size="14.00" fill="#000000">opJLT</text>
</g>
<!-- opJLT&#45;&gt;stepTM() -->
<g id="edge103" class="edge">
<title>opJLT-&gt;stepTM()</title>
<path fill="none" stroke="#000000" d="M5059.5895,-221.6005C5053.668,-219.34 5047.3382,-217.2912 5041.2469,-216 4903.8008,-186.8637 3903.518,-167.4563 3651.0129,-162.9864"/>
<polygon fill="#000000" stroke="#000000" points="3651.0081,-159.4859 3640.948,-162.8091 3650.8848,-166.4848 3651.0081,-159.4859"/>
</g>
<!-- opJNE -->
<g id="node52" class="node">
<title>opJNE</title>
<ellipse fill="none" stroke="#000000" cx="2984.2469" cy="-234" rx="37.1405" ry="18"/>
<text text-anchor="middle" x="2984.2469" y="-229.8" font-family="Times,serif" font-size="14.00" fill="#000000">opJNE</text>
</g>
<!-- opJNE&#45;&gt;stepTM() -->
<g id="edge104" class="edge">
<title>opJNE-&gt;stepTM()</title>
<path fill="none" stroke="#000000" d="M3012.0698,-221.6923C3017.9749,-219.4845 3024.2411,-217.4335 3030.2469,-216 3125.2342,-193.3276 3412.5005,-173.2873 3535.9056,-165.4764"/>
<polygon fill="#000000" stroke="#000000" points="3536.1562,-168.9676 3545.9168,-164.8468 3535.7168,-161.9814 3536.1562,-168.9676"/>
</g>
<!-- opLD -->
<g id="node53" class="node">
<title>opLD</title>
<ellipse fill="none" stroke="#000000" cx="3073.2469" cy="-234" rx="33.6286" ry="18"/>
<text text-anchor="middle" x="3073.2469" y="-229.8" font-family="Times,serif" font-size="14.00" fill="#000000">opLD</text>
</g>
<!-- opLD&#45;&gt;stepTM() -->
<g id="edge105" class="edge">
<title>opLD-&gt;stepTM()</title>
<path fill="none" stroke="#000000" d="M3098.1424,-221.9197C3103.6682,-219.6394 3109.5718,-217.5018 3115.2469,-216 3193.5568,-195.2775 3427.6667,-174.9526 3536.4835,-166.3224"/>
<polygon fill="#000000" stroke="#000000" points="3536.9195,-169.7989 3546.6136,-165.5241 3536.3695,-162.8206 3536.9195,-169.7989"/>
</g>
<!-- opLDA -->
<g id="node54" class="node">
<title>opLDA</title>
<ellipse fill="none" stroke="#000000" cx="3165.2469" cy="-234" rx="40.5712" ry="18"/>
<text text-anchor="middle" x="3165.2469" y="-229.8" font-family="Times,serif" font-size="14.00" fill="#000000">opLDA</text>
</g>
<!-- opLDA&#45;&gt;stepTM() -->
<g id="edge106" class="edge">
<title>opLDA-&gt;stepTM()</title>
<path fill="none" stroke="#000000" d="M3196.9739,-222.5863C3204.5303,-220.1558 3212.6167,-217.7868 3220.2469,-216 3330.9878,-190.0673 3463.3111,-174.455 3536.8517,-167.104"/>
<polygon fill="#000000" stroke="#000000" points="3537.2212,-170.5846 3546.83,-166.1214 3536.5351,-163.6183 3537.2212,-170.5846"/>
</g>
<!-- opLDC -->
<g id="node55" class="node">
<title>opLDC</title>
<ellipse fill="none" stroke="#000000" cx="3302.2469" cy="-234" rx="40.0089" ry="18"/>
<text text-anchor="middle" x="3302.2469" y="-229.8" font-family="Times,serif" font-size="14.00" fill="#000000">opLDC</text>
</g>
<!-- opLDC&#45;&gt;stepTM() -->
<g id="edge107" class="edge">
<title>opLDC-&gt;stepTM()</title>
<path fill="none" stroke="#000000" d="M3332.6203,-222.1339C3338.7387,-219.9447 3345.1603,-217.7885 3351.2469,-216 3415.3878,-197.153 3490.7674,-181.2999 3540.145,-171.7443"/>
<polygon fill="#000000" stroke="#000000" points="3540.8064,-175.1813 3549.9679,-169.8601 3539.4876,-168.3066 3540.8064,-175.1813"/>
</g>
<!-- opMUL -->
<g id="node56" class="node">
<title>opMUL</title>
<ellipse fill="none" stroke="#000000" cx="3402.2469" cy="-234" rx="42.2971" ry="18"/>
<text text-anchor="middle" x="3402.2469" y="-229.8" font-family="Times,serif" font-size="14.00" fill="#000000">opMUL</text>
</g>
<!-- opMUL&#45;&gt;stepTM() -->
<g id="edge108" class="edge">
<title>opMUL-&gt;stepTM()</title>
<path fill="none" stroke="#000000" d="M3434.216,-221.9488C3465.9582,-209.9832 3514.8378,-191.5574 3550.0277,-178.292"/>
<polygon fill="#000000" stroke="#000000" points="3551.4418,-181.4995 3559.5645,-174.6971 3548.9726,-174.9494 3551.4418,-181.4995"/>
</g>
<!-- opOUT -->
<g id="node57" class="node">
<title>opOUT</title>
<ellipse fill="none" stroke="#000000" cx="3503.2469" cy="-234" rx="40.5712" ry="18"/>
<text text-anchor="middle" x="3503.2469" y="-229.8" font-family="Times,serif" font-size="14.00" fill="#000000">opOUT</text>
</g>
<!-- opOUT&#45;&gt;stepTM() -->
<g id="edge109" class="edge">
<title>opOUT-&gt;stepTM()</title>
<path fill="none" stroke="#000000" d="M3523.2208,-218.0209C3535.4004,-208.2772 3551.1663,-195.6645 3564.6538,-184.8745"/>
<polygon fill="#000000" stroke="#000000" points="3567.0826,-187.4137 3572.7049,-178.4336 3562.7097,-181.9476 3567.0826,-187.4137"/>
</g>
<!-- opRALim -->
<g id="node58" class="node">
<title>opRALim</title>
<ellipse fill="none" stroke="#000000" cx="873.2469" cy="-234" rx="50.4013" ry="18"/>
<text text-anchor="middle" x="873.2469" y="-229.8" font-family="Times,serif" font-size="14.00" fill="#000000">opRALim</text>
</g>
<!-- opRALim&#45;&gt;readInstructions() -->
<g id="edge110" class="edge">
<title>opRALim-&gt;readInstructions()</title>
<path fill="none" stroke="#000000" d="M910.1172,-221.6213C917.3906,-219.501 925.0117,-217.5013 932.2469,-216 1071.084,-187.1912 1109.0689,-201.3493 1249.2469,-180 1257.2465,-178.7817 1265.6042,-177.3755 1273.8943,-175.897"/>
<polygon fill="#000000" stroke="#000000" points="1274.7338,-179.3017 1283.9443,-174.0655 1273.4788,-172.4151 1274.7338,-179.3017"/>
</g>
<!-- opRMLim -->
<g id="node59" class="node">
<title>opRMLim</title>
<ellipse fill="none" stroke="#000000" cx="2383.2469" cy="-306" rx="51.6266" ry="18"/>
<text text-anchor="middle" x="2383.2469" y="-301.8" font-family="Times,serif" font-size="14.00" fill="#000000">opRMLim</text>
</g>
<!-- opRMLim&#45;&gt;opClass() -->
<g id="edge111" class="edge">
<title>opRMLim-&gt;opClass()</title>
<path fill="none" stroke="#000000" d="M2417.8559,-292.4574C2447.9512,-280.6809 2491.6887,-263.5663 2524.0678,-250.8962"/>
<polygon fill="#000000" stroke="#000000" points="2525.6871,-254.021 2533.7241,-247.1176 2523.1363,-247.5023 2525.6871,-254.021"/>
</g>
<!-- opRRLim -->
<g id="node60" class="node">
<title>opRRLim</title>
<ellipse fill="none" stroke="#000000" cx="2502.2469" cy="-306" rx="49.8388" ry="18"/>
<text text-anchor="middle" x="2502.2469" y="-301.8" font-family="Times,serif" font-size="14.00" fill="#000000">opRRLim</text>
</g>
<!-- opRRLim&#45;&gt;opClass() -->
<g id="edge112" class="edge">
<title>opRRLim-&gt;opClass()</title>
<path fill="none" stroke="#000000" d="M2517.9816,-288.5708C2526.0455,-279.6385 2536.0057,-268.6056 2544.8554,-258.8029"/>
<polygon fill="#000000" stroke="#000000" points="2547.554,-261.0368 2551.6571,-251.2687 2542.3581,-256.346 2547.554,-261.0368"/>
</g>
<!-- opST -->
<g id="node61" class="node">
<title>opST</title>
<ellipse fill="none" stroke="#000000" cx="3593.2469" cy="-234" rx="31.9224" ry="18"/>
<text text-anchor="middle" x="3593.2469" y="-229.8" font-family="Times,serif" font-size="14.00" fill="#000000">opST</text>
</g>
<!-- opST&#45;&gt;stepTM() -->
<g id="edge113" class="edge">
<title>opST-&gt;stepTM()</title>
<path fill="none" stroke="#000000" d="M3593.2469,-215.8314C3593.2469,-208.131 3593.2469,-198.9743 3593.2469,-190.4166"/>
<polygon fill="#000000" stroke="#000000" points="3596.747,-190.4132 3593.2469,-180.4133 3589.747,-190.4133 3596.747,-190.4132"/>
</g>
<!-- opSUB -->
<g id="node62" class="node">
<title>opSUB</title>
<ellipse fill="none" stroke="#000000" cx="3682.2469" cy="-234" rx="39.4466" ry="18"/>
<text text-anchor="middle" x="3682.2469" y="-229.8" font-family="Times,serif" font-size="14.00" fill="#000000">opSUB</text>
</g>
<!-- opSUB&#45;&gt;stepTM() -->
<g id="edge114" class="edge">
<title>opSUB-&gt;stepTM()</title>
<path fill="none" stroke="#000000" d="M3662.4949,-218.0209C3650.4507,-208.2772 3634.86,-195.6645 3621.5223,-184.8745"/>
<polygon fill="#000000" stroke="#000000" points="3623.5366,-182.0021 3613.5607,-178.4336 3619.1339,-187.4442 3623.5366,-182.0021"/>
</g>
<!-- opclRA -->
<g id="node63" class="node">
<title>opclRA</title>
<ellipse fill="none" stroke="#000000" cx="2272.2469" cy="-306" rx="41.1509" ry="18"/>
<text text-anchor="middle" x="2272.2469" y="-301.8" font-family="Times,serif" font-size="14.00" fill="#000000">opclRA</text>
</g>
<!-- opclRA&#45;&gt;readInstructions() -->
<g id="edge117" class="edge">
<title>opclRA-&gt;readInstructions()</title>
<path fill="none" stroke="#000000" d="M2231.1423,-305.2726C2050.3848,-301.8774 1333.6792,-286.286 1301.2469,-252 1283.8825,-233.6431 1300.1619,-206.8102 1317.2566,-187.2209"/>
<polygon fill="#000000" stroke="#000000" points="1319.8478,-189.5738 1324.0306,-179.8396 1314.6904,-184.8408 1319.8478,-189.5738"/>
</g>
<!-- opclRA&#45;&gt;stepTM() -->
<g id="edge118" class="edge">
<title>opclRA-&gt;stepTM()</title>
<path fill="none" stroke="#000000" d="M2303.5516,-294.1599C2309.7104,-291.9926 2316.1521,-289.8378 2322.2469,-288 2386.6469,-268.5812 2409.5954,-283.0827 2469.2469,-252 2490.7523,-240.7942 2487.774,-225.1114 2510.2469,-216 2605.3579,-177.4382 3324.2733,-165.3894 3535.2278,-162.6655"/>
<polygon fill="#000000" stroke="#000000" points="3535.5173,-166.1622 3545.472,-162.5354 3535.4283,-159.1628 3535.5173,-166.1622"/>
</g>
<!-- opclRA&#45;&gt;writeInstruction() -->
<g id="edge116" class="edge">
<title>opclRA-&gt;writeInstruction()</title>
<path fill="none" stroke="#000000" d="M2303.9294,-294.4079C2309.9968,-292.2409 2316.3083,-290.0227 2322.2469,-288 2371.7408,-271.1423 2388.4625,-277.251 2434.2469,-252 2456.0722,-239.9629 2455.3516,-227.9092 2477.2469,-216 2510.1533,-198.1016 2549.8353,-185.2405 2583.0875,-176.571"/>
<polygon fill="#000000" stroke="#000000" points="2584.351,-179.8616 2593.186,-174.0141 2582.6328,-173.0757 2584.351,-179.8616"/>
</g>
<!-- opclRA&#45;&gt;opClass() -->
<g id="edge115" class="edge">
<title>opclRA-&gt;opClass()</title>
<path fill="none" stroke="#000000" d="M2303.2188,-294.0285C2309.4638,-291.848 2316.0226,-289.722 2322.2469,-288 2402.1382,-265.8982 2424.6992,-271.5747 2505.2469,-252 2510.1582,-250.8065 2515.2631,-249.4749 2520.3408,-248.091"/>
<polygon fill="#000000" stroke="#000000" points="2521.3254,-251.45 2530.0143,-245.3876 2519.4412,-244.7083 2521.3254,-251.45"/>
</g>
<!-- opclRM -->
<g id="node64" class="node">
<title>opclRM</title>
<ellipse fill="none" stroke="#000000" cx="2612.2469" cy="-306" rx="42.8771" ry="18"/>
<text text-anchor="middle" x="2612.2469" y="-301.8" font-family="Times,serif" font-size="14.00" fill="#000000">opclRM</text>
</g>
<!-- opclRM&#45;&gt;readInstructions() -->
<g id="edge121" class="edge">
<title>opclRM-&gt;readInstructions()</title>
<path fill="none" stroke="#000000" d="M2581.3801,-293.3908C2574.8346,-291.2049 2567.8928,-289.239 2561.2469,-288 2494.206,-275.5017 1381.7564,-300.9239 1334.2469,-252 1318.6182,-235.906 1323.2359,-209.7461 1330.3698,-189.7672"/>
<polygon fill="#000000" stroke="#000000" points="1333.7106,-190.8356 1334.1156,-180.2485 1327.1968,-188.2722 1333.7106,-190.8356"/>
</g>
<!-- opclRM&#45;&gt;stepTM() -->
<g id="edge122" class="edge">
<title>opclRM-&gt;stepTM()</title>
<path fill="none" stroke="#000000" d="M2651.1465,-298.3935C2667.8015,-295.1569 2687.4719,-291.3609 2705.2469,-288 2791.8438,-271.6264 2821.6907,-291.9502 2900.2469,-252 2920.9838,-241.4541 2917.0074,-225.4931 2938.2469,-216 2992.0357,-191.9589 3385.3956,-171.5602 3535.3757,-164.5757"/>
<polygon fill="#000000" stroke="#000000" points="3535.918,-168.0545 3545.7456,-164.0962 3535.5946,-161.062 3535.918,-168.0545"/>
</g>
<!-- opclRM&#45;&gt;writeInstruction() -->
<g id="edge120" class="edge">
<title>opclRM-&gt;writeInstruction()</title>
<path fill="none" stroke="#000000" d="M2617.2321,-288.0535C2624.0588,-263.4774 2636.3856,-219.1008 2644.4421,-190.0974"/>
<polygon fill="#000000" stroke="#000000" points="2647.8948,-190.7447 2647.199,-180.1727 2641.1501,-188.8711 2647.8948,-190.7447"/>
</g>
<!-- opclRM&#45;&gt;opClass() -->
<g id="edge119" class="edge">
<title>opclRM-&gt;opClass()</title>
<path fill="none" stroke="#000000" d="M2601.3537,-288.5708C2596.0709,-280.1184 2589.6126,-269.7851 2583.7426,-260.3931"/>
<polygon fill="#000000" stroke="#000000" points="2586.6205,-258.3939 2578.3525,-251.7689 2580.6845,-262.1039 2586.6205,-258.3939"/>
</g>
<!-- opclRR -->
<g id="node65" class="node">
<title>opclRR</title>
<ellipse fill="none" stroke="#000000" cx="2755.2469" cy="-306" rx="40.5886" ry="18"/>
<text text-anchor="middle" x="2755.2469" y="-301.8" font-family="Times,serif" font-size="14.00" fill="#000000">opclRR</text>
</g>
<!-- opclRR&#45;&gt;readInstructions() -->
<g id="edge125" class="edge">
<title>opclRR-&gt;readInstructions()</title>
<path fill="none" stroke="#000000" d="M2749.0662,-288.0043C2740.6321,-266.5602 2723.2777,-231.6669 2695.2469,-216 2647.4475,-189.2841 1764.9556,-182.3413 1710.2469,-180 1614.8324,-175.9167 1505.5043,-170.4534 1431.1667,-166.6206"/>
<polygon fill="#000000" stroke="#000000" points="1431.0819,-163.1116 1420.9146,-166.0909 1430.7207,-170.1023 1431.0819,-163.1116"/>
</g>
<!-- opclRR&#45;&gt;stepTM() -->
<g id="edge126" class="edge">
<title>opclRR-&gt;stepTM()</title>
<path fill="none" stroke="#000000" d="M2796.0005,-304.4929C2894.1773,-300.3438 3141.1403,-286.6725 3215.2469,-252 3236.319,-242.1409 3232.3796,-226.2853 3253.2469,-216 3302.0081,-191.9662 3453.1522,-174.8219 3536.5516,-166.9116"/>
<polygon fill="#000000" stroke="#000000" points="3536.9905,-170.3859 3546.6212,-165.9702 3536.3388,-163.4163 3536.9905,-170.3859"/>
</g>
<!-- opclRR&#45;&gt;writeInstruction() -->
<g id="edge124" class="edge">
<title>opclRR-&gt;writeInstruction()</title>
<path fill="none" stroke="#000000" d="M2754.631,-287.8538C2753.1572,-268.463 2748.3863,-237.6027 2733.2469,-216 2723.9376,-202.7163 2710.2235,-191.8029 2696.7159,-183.3496"/>
<polygon fill="#000000" stroke="#000000" points="2698.3073,-180.2246 2687.9176,-178.1496 2694.7457,-186.2508 2698.3073,-180.2246"/>
</g>
<!-- opclRR&#45;&gt;opClass() -->
<g id="edge123" class="edge">
<title>opclRR-&gt;opClass()</title>
<path fill="none" stroke="#000000" d="M2724.2026,-294.1107C2693.1253,-282.2087 2645.0572,-263.7997 2610.3023,-250.4893"/>
<polygon fill="#000000" stroke="#000000" points="2611.4683,-247.188 2600.8779,-246.8799 2608.9647,-253.725 2611.4683,-247.188"/>
</g>
<!-- pgm -->
<g id="node66" class="node">
<title>pgm</title>
<ellipse fill="none" stroke="#000000" cx="1371.2469" cy="-234" rx="28.4127" ry="18"/>
<text text-anchor="middle" x="1371.2469" y="-229.8" font-family="Times,serif" font-size="14.00" fill="#000000">pgm</text>
</g>
<!-- pgm&#45;&gt;readInstructions() -->
<g id="edge127" class="edge">
<title>pgm-&gt;readInstructions()</title>
<path fill="none" stroke="#000000" d="M1364.3256,-216.2022C1361.1859,-208.1287 1357.4016,-198.3976 1353.911,-189.422"/>
<polygon fill="#000000" stroke="#000000" points="1357.1697,-188.1446 1350.2831,-180.0931 1350.6456,-190.6818 1357.1697,-188.1446"/>
</g>
<!-- pgm&#45;&gt;main() -->
<g id="edge128" class="edge">
<title>pgm-&gt;main()</title>
<path fill="none" stroke="#000000" d="M1392.1913,-221.9385C1397.2911,-219.5346 1402.8386,-217.3401 1408.2469,-216 1525.867,-186.855 2397.3558,-247.1184 2498.2469,-180 2540.0354,-152.2 2538.0257,-121.7309 2531.2469,-72 2530.0511,-63.2269 2527.81,-53.8675 2525.418,-45.4473"/>
<polygon fill="#000000" stroke="#000000" points="2528.729,-44.3045 2522.4854,-35.7448 2522.0284,-46.3298 2528.729,-44.3045"/>
</g>
<!-- pgmName -->
<g id="node67" class="node">
<title>pgmName</title>
<ellipse fill="none" stroke="#000000" cx="2629.2469" cy="-90" rx="51.0261" ry="18"/>
<text text-anchor="middle" x="2629.2469" y="-85.8" font-family="Times,serif" font-size="14.00" fill="#000000">pgmName</text>
</g>
<!-- pgmName&#45;&gt;main() -->
<g id="edge129" class="edge">
<title>pgmName-&gt;main()</title>
<path fill="none" stroke="#000000" d="M2604.4486,-74.1993C2587.5875,-63.4559 2565.1571,-49.164 2547.136,-37.6815"/>
<polygon fill="#000000" stroke="#000000" points="2549.0015,-34.7201 2538.6871,-32.2982 2545.2399,-40.6236 2549.0015,-34.7201"/>
</g>
<!-- printf() -->
<g id="node68" class="node">
<title>printf()</title>
<ellipse fill="none" stroke="#000000" cx="4083.2469" cy="-306" rx="38.8401" ry="18"/>
<text text-anchor="middle" x="4083.2469" y="-301.8" font-family="Times,serif" font-size="14.00" fill="#000000">printf()</text>
</g>
<!-- printf()&#45;&gt;stepTM() -->
<g id="edge132" class="edge">
<title>printf()-&gt;stepTM()</title>
<path fill="none" stroke="#000000" d="M4078.0472,-288.0797C4070.9343,-267.0517 4056.0189,-232.9132 4030.2469,-216 3969.0911,-175.8656 3755.1511,-165.5592 3651.0371,-162.9134"/>
<polygon fill="#000000" stroke="#000000" points="3651.0921,-159.4138 3641.0113,-162.6737 3650.9247,-166.4118 3651.0921,-159.4138"/>
</g>
<!-- printf()&#45;&gt;doCommand() -->
<g id="edge133" class="edge">
<title>printf()-&gt;doCommand()</title>
<path fill="none" stroke="#000000" d="M4122.2774,-305.4333C4365.5105,-301.8122 5664.0746,-281.1337 5692.2469,-252 5703.3693,-240.4981 5702.3706,-228.39 5692.2469,-216 5590.6595,-91.6708 5497.8998,-160.992 5338.2469,-144 4641.0279,-69.7946 2879.1936,-193.3176 2183.2469,-108 2177.0643,-107.2421 2170.6534,-106.1765 2164.2951,-104.9382"/>
<polygon fill="#000000" stroke="#000000" points="2164.8917,-101.4874 2154.3874,-102.8694 2163.4608,-108.3396 2164.8917,-101.4874"/>
</g>
<!-- printf()&#45;&gt;error() -->
<g id="edge131" class="edge">
<title>printf()-&gt;error()</title>
<path fill="none" stroke="#000000" d="M4044.2374,-305.4029C3730.0219,-300.5708 1616.4937,-267.6466 1334.2469,-252 1282.1973,-249.1146 1222.6142,-243.3229 1182.7293,-239.0856"/>
<polygon fill="#000000" stroke="#000000" points="1183.0958,-235.6049 1172.7793,-238.0173 1182.3485,-242.5649 1183.0958,-235.6049"/>
</g>
<!-- printf()&#45;&gt;writeInstruction() -->
<g id="edge130" class="edge">
<title>printf()-&gt;writeInstruction()</title>
<path fill="none" stroke="#000000" d="M4044.0316,-305.4812C3843.1709,-302.6704 2934.3732,-288.0401 2814.2469,-252 2784.4602,-243.0634 2781.3322,-231.2808 2754.2469,-216 2734.5408,-204.8823 2712.3733,-193.0659 2693.7501,-183.3303"/>
<polygon fill="#000000" stroke="#000000" points="2695.1293,-180.1025 2684.6434,-178.5874 2691.8959,-186.3109 2695.1293,-180.1025"/>
</g>
<!-- printf()&#45;&gt;main() -->
<g id="edge134" class="edge">
<title>printf()-&gt;main()</title>
<path fill="none" stroke="#000000" d="M4122.2932,-305.4471C4367.0774,-301.8909 5680.7568,-281.452 5709.2469,-252 5720.3713,-240.5001 5718.4471,-229.0903 5709.2469,-216 5654.9234,-138.7071 5602.0635,-161.6161 5509.2469,-144 5243.4295,-93.5492 4562.5921,-118.8473 4292.2469,-108 3604.3418,-80.3986 2767.2751,-32.5925 2562.8864,-20.7254"/>
<polygon fill="#000000" stroke="#000000" points="2562.9895,-17.2256 2552.8032,-20.1393 2562.5832,-24.2138 2562.9895,-17.2256"/>
</g>
<!-- reg -->
<g id="node69" class="node">
<title>reg</title>
<ellipse fill="none" stroke="#000000" cx="2150.2469" cy="-234" rx="27" ry="18"/>
<text text-anchor="middle" x="2150.2469" y="-229.8" font-family="Times,serif" font-size="14.00" fill="#000000">reg</text>
</g>
<!-- reg&#45;&gt;readInstructions() -->
<g id="edge136" class="edge">
<title>reg-&gt;readInstructions()</title>
<path fill="none" stroke="#000000" d="M2129.862,-222.0788C2124.9003,-219.6692 2119.5045,-217.4369 2114.2469,-216 2049.8645,-198.4042 1619.8388,-175.541 1431.4189,-166.2267"/>
<polygon fill="#000000" stroke="#000000" points="1431.4281,-162.723 1421.2679,-165.7265 1431.0835,-169.7145 1431.4281,-162.723"/>
</g>
<!-- reg&#45;&gt;stepTM() -->
<g id="edge137" class="edge">
<title>reg-&gt;stepTM()</title>
<path fill="none" stroke="#000000" d="M2170.5999,-221.9582C2175.5629,-219.5536 2180.9673,-217.3538 2186.2469,-216 2318.212,-182.1626 3287.2494,-166.3088 3535.4589,-162.7768"/>
<polygon fill="#000000" stroke="#000000" points="3535.7541,-166.2731 3545.7037,-162.6323 3535.6552,-159.2738 3535.7541,-166.2731"/>
</g>
<!-- reg&#45;&gt;doCommand() -->
<g id="edge138" class="edge">
<title>reg-&gt;doCommand()</title>
<path fill="none" stroke="#000000" d="M2144.9743,-216.3428C2137.632,-191.7545 2124.2532,-146.9511 2115.5602,-117.8397"/>
<polygon fill="#000000" stroke="#000000" points="2118.9134,-116.8364 2112.6984,-108.256 2112.206,-118.8393 2118.9134,-116.8364"/>
</g>
<!-- srDMEM_ERR -->
<g id="node70" class="node">
<title>srDMEM_ERR</title>
<ellipse fill="none" stroke="#000000" cx="3811.2469" cy="-234" rx="71.8086" ry="18"/>
<text text-anchor="middle" x="3811.2469" y="-229.8" font-family="Times,serif" font-size="14.00" fill="#000000">srDMEM_ERR</text>
</g>
<!-- srDMEM_ERR&#45;&gt;stepTM() -->
<g id="edge140" class="edge">
<title>srDMEM_ERR-&gt;stepTM()</title>
<path fill="none" stroke="#000000" d="M3767.6553,-219.6028C3730.3573,-207.2842 3676.845,-189.6104 3638.9509,-177.0949"/>
<polygon fill="#000000" stroke="#000000" points="3639.7821,-173.6835 3629.1889,-173.8707 3637.5867,-180.3304 3639.7821,-173.6835"/>
</g>
<!-- srHALT -->
<g id="node71" class="node">
<title>srHALT</title>
<ellipse fill="none" stroke="#000000" cx="3944.2469" cy="-234" rx="43.9983" ry="18"/>
<text text-anchor="middle" x="3944.2469" y="-229.8" font-family="Times,serif" font-size="14.00" fill="#000000">srHALT</text>
</g>
<!-- srHALT&#45;&gt;stepTM() -->
<g id="edge141" class="edge">
<title>srHALT-&gt;stepTM()</title>
<path fill="none" stroke="#000000" d="M3911.7516,-221.8895C3905.341,-219.7458 3898.624,-217.6689 3892.2469,-216 3808.309,-194.0334 3708.7985,-178.0019 3648.3787,-169.3471"/>
<polygon fill="#000000" stroke="#000000" points="3648.6877,-165.8561 3638.2957,-167.9194 3647.7062,-172.7869 3648.6877,-165.8561"/>
</g>
<!-- srIMEM_ERR -->
<g id="node72" class="node">
<title>srIMEM_ERR</title>
<ellipse fill="none" stroke="#000000" cx="4150.2469" cy="-234" rx="67.7953" ry="18"/>
<text text-anchor="middle" x="4150.2469" y="-229.8" font-family="Times,serif" font-size="14.00" fill="#000000">srIMEM_ERR</text>
</g>
<!-- srIMEM_ERR&#45;&gt;stepTM() -->
<g id="edge142" class="edge">
<title>srIMEM_ERR-&gt;stepTM()</title>
<path fill="none" stroke="#000000" d="M4099.2261,-221.9497C4089.003,-219.7757 4078.3115,-217.6722 4068.2469,-216 3918.217,-191.0732 3739.5946,-174.1637 3650.1833,-166.5656"/>
<polygon fill="#000000" stroke="#000000" points="3650.2483,-163.0588 3639.9897,-165.707 3649.6606,-170.0341 3650.2483,-163.0588"/>
</g>
<!-- srOKAY -->
<g id="node73" class="node">
<title>srOKAY</title>
<ellipse fill="none" stroke="#000000" cx="5472.2469" cy="-234" rx="45.7848" ry="18"/>
<text text-anchor="middle" x="5472.2469" y="-229.8" font-family="Times,serif" font-size="14.00" fill="#000000">srOKAY</text>
</g>
<!-- srOKAY&#45;&gt;stepTM() -->
<g id="edge143" class="edge">
<title>srOKAY-&gt;stepTM()</title>
<path fill="none" stroke="#000000" d="M5439.1889,-221.491C5432.0485,-219.268 5424.4718,-217.2621 5417.2469,-216 5240.088,-185.0527 3942.1771,-166.5208 3651.0806,-162.7274"/>
<polygon fill="#000000" stroke="#000000" points="3650.7984,-159.2235 3640.7539,-162.5935 3650.7076,-166.2229 3650.7984,-159.2235"/>
</g>
<!-- srOKAY&#45;&gt;doCommand() -->
<g id="edge144" class="edge">
<title>srOKAY-&gt;doCommand()</title>
<path fill="none" stroke="#000000" d="M5438.5273,-221.6918C5431.5655,-219.512 5424.2268,-217.4719 5417.2469,-216 5101.7066,-149.4571 5017.2062,-162.3271 4695.2469,-144 4137.8697,-112.272 2737.2782,-176.7411 2183.2469,-108 2177.2988,-107.262 2171.1389,-106.2422 2165.0177,-105.0599"/>
<polygon fill="#000000" stroke="#000000" points="2165.2996,-101.5439 2154.7969,-102.9379 2163.8766,-108.3977 2165.2996,-101.5439"/>
</g>
<!-- srZERODIVIDE -->
<g id="node74" class="node">
<title>srZERODIVIDE</title>
<ellipse fill="none" stroke="#000000" cx="4312.2469" cy="-234" rx="76.4208" ry="18"/>
<text text-anchor="middle" x="4312.2469" y="-229.8" font-family="Times,serif" font-size="14.00" fill="#000000">srZERODIVIDE</text>
</g>
<!-- srZERODIVIDE&#45;&gt;stepTM() -->
<g id="edge145" class="edge">
<title>srZERODIVIDE-&gt;stepTM()</title>
<path fill="none" stroke="#000000" d="M4257.5578,-221.3792C4247.5154,-219.3584 4237.0954,-217.4565 4227.2469,-216 4016.0994,-184.7735 3762.5183,-169.9223 3650.84,-164.5161"/>
<polygon fill="#000000" stroke="#000000" points="3650.9566,-161.0178 3640.8012,-164.0372 3650.623,-168.0098 3650.9566,-161.0178"/>
</g>
<!-- stdin -->
<g id="node75" class="node">
<title>stdin</title>
<ellipse fill="none" stroke="#000000" cx="5566.2469" cy="-234" rx="29.6339" ry="18"/>
<text text-anchor="middle" x="5566.2469" y="-229.8" font-family="Times,serif" font-size="14.00" fill="#000000">stdin</text>
</g>
<!-- stdin&#45;&gt;stepTM() -->
<g id="edge146" class="edge">
<title>stdin-&gt;stepTM()</title>
<path fill="none" stroke="#000000" d="M5544.1161,-221.9194C5538.7429,-219.5163 5532.9102,-217.327 5527.2469,-216 5340.8993,-172.3363 3953.3412,-163.6177 3651.2129,-162.2305"/>
<polygon fill="#000000" stroke="#000000" points="3650.9426,-158.7294 3640.9269,-162.1842 3650.911,-165.7293 3650.9426,-158.7294"/>
</g>
<!-- stdin&#45;&gt;doCommand() -->
<g id="edge147" class="edge">
<title>stdin-&gt;doCommand()</title>
<path fill="none" stroke="#000000" d="M5543.5961,-222.1405C5538.3436,-219.7891 5532.6936,-217.5664 5527.2469,-216 5285.6601,-146.5238 5217.0046,-161.6548 4966.2469,-144 4349.278,-100.5619 2797.0897,-183.7274 2183.2469,-108 2177.0649,-107.2373 2170.6544,-106.1688 2164.2963,-104.9287"/>
<polygon fill="#000000" stroke="#000000" points="2164.8933,-101.4779 2154.3888,-102.8581 2163.4612,-108.3299 2164.8933,-101.4779"/>
</g>
<!-- stdout -->
<g id="node76" class="node">
<title>stdout</title>
<ellipse fill="none" stroke="#000000" cx="5648.2469" cy="-234" rx="34.7903" ry="18"/>
<text text-anchor="middle" x="5648.2469" y="-229.8" font-family="Times,serif" font-size="14.00" fill="#000000">stdout</text>
</g>
<!-- stdout&#45;&gt;stepTM() -->
<g id="edge148" class="edge">
<title>stdout-&gt;stepTM()</title>
<path fill="none" stroke="#000000" d="M5622.8268,-221.5501C5617.1652,-219.2928 5611.1021,-217.258 5605.2469,-216 5410.0629,-174.0639 3959.9939,-163.9673 3651.0358,-162.2833"/>
<polygon fill="#000000" stroke="#000000" points="3650.9721,-158.783 3640.9535,-162.2291 3650.9345,-165.7829 3650.9721,-158.783"/>
</g>
<!-- stdout&#45;&gt;doCommand() -->
<g id="edge149" class="edge">
<title>stdout-&gt;doCommand()</title>
<path fill="none" stroke="#000000" d="M5622.2084,-221.9949C5616.6906,-219.7653 5610.8416,-217.6288 5605.2469,-216 5423.8277,-163.1816 5374.4153,-161.1862 5186.2469,-144 4521.632,-83.2979 2845.6456,-189.399 2183.2469,-108 2177.0646,-107.2403 2170.6538,-106.1736 2164.2956,-104.9346"/>
<polygon fill="#000000" stroke="#000000" points="2164.8923,-101.4838 2154.3879,-102.8651 2163.461,-108.3359 2164.8923,-101.4838"/>
</g>
<!-- stepResultTab -->
<g id="node77" class="node">
<title>stepResultTab</title>
<ellipse fill="none" stroke="#000000" cx="2315.2469" cy="-162" rx="66.0685" ry="18"/>
<text text-anchor="middle" x="2315.2469" y="-157.8" font-family="Times,serif" font-size="14.00" fill="#000000">stepResultTab</text>
</g>
<!-- stepResultTab&#45;&gt;doCommand() -->
<g id="edge150" class="edge">
<title>stepResultTab-&gt;doCommand()</title>
<path fill="none" stroke="#000000" d="M2274.1528,-147.7751C2240.9295,-136.2747 2193.9871,-120.0254 2158.3439,-107.6874"/>
<polygon fill="#000000" stroke="#000000" points="2159.2059,-104.2821 2148.6111,-104.3184 2156.9161,-110.897 2159.2059,-104.2821"/>
</g>
<!-- strcat() -->
<g id="node78" class="node">
<title>strcat()</title>
<ellipse fill="none" stroke="#000000" cx="4339.2469" cy="-90" rx="38.2549" ry="18"/>
<text text-anchor="middle" x="4339.2469" y="-85.8" font-family="Times,serif" font-size="14.00" fill="#000000">strcat()</text>
</g>
<!-- strcat()&#45;&gt;main() -->
<g id="edge152" class="edge">
<title>strcat()-&gt;main()</title>
<path fill="none" stroke="#000000" d="M4309.9658,-78.1348C4302.6604,-75.6584 4294.7636,-73.3823 4287.2469,-72 4113.616,-40.0702 2827.2252,-21.9818 2563.4352,-18.587"/>
<polygon fill="#000000" stroke="#000000" points="2563.1049,-15.0826 2553.0609,-18.4543 2563.0153,-22.082 2563.1049,-15.0826"/>
</g>
<!-- strchr() -->
<g id="node79" class="node">
<title>strchr()</title>
<ellipse fill="none" stroke="#000000" cx="4435.2469" cy="-90" rx="39.4003" ry="18"/>
<text text-anchor="middle" x="4435.2469" y="-85.8" font-family="Times,serif" font-size="14.00" fill="#000000">strchr()</text>
</g>
<!-- strchr()&#45;&gt;main() -->
<g id="edge153" class="edge">
<title>strchr()-&gt;main()</title>
<path fill="none" stroke="#000000" d="M4406.4089,-77.6593C4399.8903,-75.3645 4392.9211,-73.2867 4386.2469,-72 4202.6328,-36.6004 2836.0154,-21.1906 2563.4566,-18.4532"/>
<polygon fill="#000000" stroke="#000000" points="2563.1583,-14.9501 2553.1239,-18.3502 2563.0885,-21.9498 2563.1583,-14.9501"/>
</g>
<!-- strcpy() -->
<g id="node80" class="node">
<title>strcpy()</title>
<ellipse fill="none" stroke="#000000" cx="4534.2469" cy="-90" rx="41.1277" ry="18"/>
<text text-anchor="middle" x="4534.2469" y="-85.8" font-family="Times,serif" font-size="14.00" fill="#000000">strcpy()</text>
</g>
<!-- strcpy()&#45;&gt;main() -->
<g id="edge154" class="edge">
<title>strcpy()-&gt;main()</title>
<path fill="none" stroke="#000000" d="M4504.198,-77.6553C4497.4153,-75.3607 4490.171,-73.2841 4483.2469,-72 4289.3469,-36.0407 2844.959,-21.018 2563.653,-18.4183"/>
<polygon fill="#000000" stroke="#000000" points="2563.4152,-14.9161 2553.3835,-18.3242 2563.351,-21.9158 2563.4152,-14.9161"/>
</g>
<!-- strlen() -->
<g id="node81" class="node">
<title>strlen()</title>
<ellipse fill="none" stroke="#000000" cx="2234.2469" cy="-234" rx="38.8382" ry="18"/>
<text text-anchor="middle" x="2234.2469" y="-229.8" font-family="Times,serif" font-size="14.00" fill="#000000">strlen()</text>
</g>
<!-- strlen()&#45;&gt;readInstructions() -->
<g id="edge155" class="edge">
<title>strlen()-&gt;readInstructions()</title>
<path fill="none" stroke="#000000" d="M2205.7245,-221.7377C2199.4137,-219.4687 2192.6864,-217.3817 2186.2469,-216 2114.0153,-200.5009 1633.2346,-175.9463 1431.7885,-166.1933"/>
<polygon fill="#000000" stroke="#000000" points="1431.6951,-162.6848 1421.5379,-165.6981 1431.3573,-169.6766 1431.6951,-162.6848"/>
</g>
<!-- strlen()&#45;&gt;stepTM() -->
<g id="edge156" class="edge">
<title>strlen()-&gt;stepTM()</title>
<path fill="none" stroke="#000000" d="M2262.7461,-221.6262C2269.0583,-219.3642 2275.7922,-217.3082 2282.2469,-216 2405.9899,-190.9201 3298.6664,-168.7796 3535.6263,-163.2975"/>
<polygon fill="#000000" stroke="#000000" points="3535.8383,-166.7936 3545.755,-163.0641 3535.6769,-159.7955 3535.8383,-166.7936"/>
</g>
<!-- strlen()&#45;&gt;doCommand() -->
<g id="edge157" class="edge">
<title>strlen()-&gt;doCommand()</title>
<path fill="none" stroke="#000000" d="M2219.4299,-217.1995C2197.3005,-192.108 2155.4576,-144.6641 2129.6005,-115.3458"/>
<polygon fill="#000000" stroke="#000000" points="2132.0005,-112.7756 2122.761,-107.5908 2126.7506,-117.4058 2132.0005,-112.7756"/>
</g>
<!-- strncmp() -->
<g id="node82" class="node">
<title>strncmp()</title>
<ellipse fill="none" stroke="#000000" cx="437.2469" cy="-234" rx="48.652" ry="18"/>
<text text-anchor="middle" x="437.2469" y="-229.8" font-family="Times,serif" font-size="14.00" fill="#000000">strncmp()</text>
</g>
<!-- strncmp()&#45;&gt;readInstructions() -->
<g id="edge158" class="edge">
<title>strncmp()-&gt;readInstructions()</title>
<path fill="none" stroke="#000000" d="M473.903,-222.0066C482.4635,-219.6315 491.606,-217.4323 500.2469,-216 814.5819,-163.8952 899.0751,-210.3874 1216.2469,-180 1233.1098,-178.3844 1251.1649,-176.1396 1268.2147,-173.7822"/>
<polygon fill="#000000" stroke="#000000" points="1268.7075,-177.2474 1278.1207,-172.3851 1267.7298,-170.316 1268.7075,-177.2474"/>
</g>
<!-- traceflag -->
<g id="node83" class="node">
<title>traceflag</title>
<ellipse fill="none" stroke="#000000" cx="2444.2469" cy="-162" rx="44.6184" ry="18"/>
<text text-anchor="middle" x="2444.2469" y="-157.8" font-family="Times,serif" font-size="14.00" fill="#000000">traceflag</text>
</g>
<!-- traceflag&#45;&gt;doCommand() -->
<g id="edge159" class="edge">
<title>traceflag-&gt;doCommand()</title>
<path fill="none" stroke="#000000" d="M2410.774,-149.9796C2404.0314,-147.8032 2396.9545,-145.6911 2390.2469,-144 2299.6994,-121.1714 2274.7222,-126.7691 2183.2469,-108 2177.9338,-106.9098 2172.4256,-105.7209 2166.913,-104.4907"/>
<polygon fill="#000000" stroke="#000000" points="2167.5536,-101.0471 2157.0266,-102.2441 2166.0024,-107.8731 2167.5536,-101.0471"/>
</g>
<!-- word -->
<g id="node84" class="node">
<title>word</title>
<ellipse fill="none" stroke="#000000" cx="171.2469" cy="-306" rx="30.7597" ry="18"/>
<text text-anchor="middle" x="171.2469" y="-301.8" font-family="Times,serif" font-size="14.00" fill="#000000">word</text>
</g>
<!-- word&#45;&gt;readInstructions() -->
<g id="edge161" class="edge">
<title>word-&gt;readInstructions()</title>
<path fill="none" stroke="#000000" d="M175.5047,-288.106C181.6333,-266.7643 195.1883,-231.9742 221.2469,-216 268.4054,-187.0913 1161.1494,-184.8878 1216.2469,-180 1233.2134,-178.4949 1251.3788,-176.2823 1268.5119,-173.9193"/>
<polygon fill="#000000" stroke="#000000" points="1269.0508,-177.3781 1278.4635,-172.5149 1268.0725,-170.4468 1269.0508,-177.3781"/>
</g>
<!-- word&#45;&gt;doCommand() -->
<g id="edge162" class="edge">
<title>word-&gt;doCommand()</title>
<path fill="none" stroke="#000000" d="M142.9482,-298.6275C120.1979,-291.0438 89.7278,-276.76 75.2469,-252 67.1694,-238.1886 65.4319,-228.6359 75.2469,-216 154.5978,-113.8438 229.166,-162.1034 357.2469,-144 523.981,-120.4333 1713.2775,-97.205 2029.9473,-91.387"/>
<polygon fill="#000000" stroke="#000000" points="2030.018,-94.8864 2039.9521,-91.2036 2029.8897,-87.8875 2030.018,-94.8864"/>
</g>
<!-- word&#45;&gt;getWord() -->
<g id="edge160" class="edge">
<title>word-&gt;getWord()</title>
<path fill="none" stroke="#000000" d="M191.9371,-292.4574C207.7681,-282.0952 229.9135,-267.6001 248.1913,-255.6364"/>
<polygon fill="#000000" stroke="#000000" points="250.3585,-258.401 256.8088,-249.9959 246.5249,-252.5441 250.3585,-258.401"/>
</g>
</g>
</svg>